<?xml version="1.0" encoding="UTF-8" standalone="no"?>
<!DOCTYPE svg PUBLIC "-//W3C//DTD SVG 1.1//EN"
 "http://www.w3.org/Graphics/SVG/1.1/DTD/svg11.dtd">
<!-- Generated by graphviz version 3.0.0 (20220226.1711)
 -->
<!-- Title: G Pages: 1 -->
<svg width="134pt" height="218pt"
 viewBox="0.00 0.00 134.00 218.00" xmlns="http://www.w3.org/2000/svg" xmlns:xlink="http://www.w3.org/1999/xlink">
<g id="graph0" class="graph" transform="scale(1 1) rotate(0) translate(4 214)">
<title>G</title>
<polygon fill="white" stroke="transparent" points="-4,4 -4,-214 130,-214 130,4 -4,4"/>
<!-- main -->
<g id="node1" class="node">
<title>main</title>
<ellipse fill="none" stroke="black" cx="63" cy="-192" rx="28.7" ry="18"/>
<text text-anchor="middle" x="63" y="-188.3" font-family="Times,serif" font-size="14.00">main</text>
</g>
<!-- foo -->
<g id="node2" class="node">
<title>foo</title>
<ellipse fill="none" stroke="black" cx="63" cy="-105" rx="27" ry="18"/>
<text text-anchor="middle" x="63" y="-101.3" font-family="Times,serif" font-size="14.00">foo</text>
</g>
<!-- main&#45;&gt;foo -->
<g id="edge1" class="edge">
<title>main&#45;&gt;foo</title>
<path fill="none" stroke="black" d="M63,-173.8C63,-162.16 63,-146.55 63,-133.24"/>
<polygon fill="black" stroke="black" points="66.5,-133.18 63,-123.18 59.5,-133.18 66.5,-133.18"/>
<text text-anchor="middle" x="66.5" y="-144.8" font-family="Times,serif" font-size="14.00">2</text>
</g>
<!-- bar -->
<g id="node3" class="node">
<title>bar</title>
<ellipse fill="none" stroke="black" cx="27" cy="-18" rx="27" ry="18"/>
<text text-anchor="middle" x="27" y="-14.3" font-family="Times,serif" font-size="14.00">bar</text>
</g>
<!-- foo&#45;&gt;bar -->
<g id="edge2" class="edge">
<title>foo&#45;&gt;bar</title>
<path fill="none" stroke="black" d="M55.89,-87.21C50.78,-75.14 43.79,-58.64 37.97,-44.89"/>
<polygon fill="black" stroke="black" points="41.1,-43.31 33.98,-35.47 34.65,-46.04 41.1,-43.31"/>
<text text-anchor="middle" x="51.5" y="-57.8" font-family="Times,serif" font-size="14.00">2</text>
</g>
<!-- baz -->
<g id="node4" class="node">
<title>baz</title>
<ellipse fill="none" stroke="black" cx="99" cy="-18" rx="27" ry="18"/>
<text text-anchor="middle" x="99" y="-14.3" font-family="Times,serif" font-size="14.00">baz</text>
</g>
<!-- foo&#45;&gt;baz -->
<g id="edge3" class="edge">
<title>foo&#45;&gt;baz</title>
<path fill="none" stroke="black" d="M70.11,-87.21C75.22,-75.14 82.21,-58.64 88.03,-44.89"/>
<polygon fill="black" stroke="black" points="91.35,-46.04 92.02,-35.47 84.9,-43.31 91.35,-46.04"/>
<text text-anchor="middle" x="86.5" y="-57.8" font-family="Times,serif" font-size="14.00">2</text>
</g>
</g>
</svg>
