<?xml version="1.0" encoding="UTF-8" standalone="no"?>
<!DOCTYPE svg PUBLIC "-//W3C//DTD SVG 1.1//EN"
 "http://www.w3.org/Graphics/SVG/1.1/DTD/svg11.dtd">
<!-- Generated by graphviz version 3.0.0 (20220226.1711)
 -->
<!-- Title: G Pages: 1 -->
<svg width="1146pt" height="782pt"
 viewBox="0.00 0.00 1146.24 782.00" xmlns="http://www.w3.org/2000/svg" xmlns:xlink="http://www.w3.org/1999/xlink">
<g id="graph0" class="graph" transform="scale(1 1) rotate(0) translate(4 778)">
<title>G</title>
<polygon fill="white" stroke="transparent" points="-4,4 -4,-778 1142.24,-778 1142.24,4 -4,4"/>
<!-- main -->
<g id="node1" class="node">
<title>main</title>
<ellipse fill="none" stroke="black" cx="618.15" cy="-756" rx="28.7" ry="18"/>
<text text-anchor="middle" x="618.15" y="-752.3" font-family="Times,serif" font-size="14.00">main</text>
</g>
<!-- basename -->
<g id="node2" class="node">
<title>basename</title>
<ellipse fill="none" stroke="black" cx="46.15" cy="-495" rx="46.29" ry="18"/>
<text text-anchor="middle" x="46.15" y="-491.3" font-family="Times,serif" font-size="14.00">basename</text>
</g>
<!-- main&#45;&gt;basename -->
<g id="edge1" class="edge">
<title>main&#45;&gt;basename</title>
<path fill="none" stroke="black" d="M590.44,-751.14C504.22,-737.83 236.69,-686.72 74.15,-546 66.82,-539.66 61.02,-530.91 56.64,-522.5"/>
<polygon fill="black" stroke="black" points="59.73,-520.85 52.29,-513.3 53.4,-523.84 59.73,-520.85"/>
<text text-anchor="middle" x="209.65" y="-621.8" font-family="Times,serif" font-size="14.00">1</text>
</g>
<!-- add_envopt -->
<g id="node3" class="node">
<title>add_envopt</title>
<ellipse fill="none" stroke="black" cx="618.15" cy="-669" rx="51.99" ry="18"/>
<text text-anchor="middle" x="618.15" y="-665.3" font-family="Times,serif" font-size="14.00">add_envopt</text>
</g>
<!-- main&#45;&gt;add_envopt -->
<g id="edge2" class="edge">
<title>main&#45;&gt;add_envopt</title>
<path fill="none" stroke="black" d="M618.15,-737.8C618.15,-726.16 618.15,-710.55 618.15,-697.24"/>
<polygon fill="black" stroke="black" points="621.65,-697.18 618.15,-687.18 614.65,-697.18 621.65,-697.18"/>
<text text-anchor="middle" x="621.65" y="-708.8" font-family="Times,serif" font-size="14.00">1</text>
</g>
<!-- getopt_long -->
<g id="node4" class="node">
<title>getopt_long</title>
<ellipse fill="none" stroke="black" cx="741.15" cy="-669" rx="52.79" ry="18"/>
<text text-anchor="middle" x="741.15" y="-665.3" font-family="Times,serif" font-size="14.00">getopt_long</text>
</g>
<!-- main&#45;&gt;getopt_long -->
<g id="edge3" class="edge">
<title>main&#45;&gt;getopt_long</title>
<path fill="none" stroke="black" d="M636.83,-742.09C656.37,-728.58 687.37,-707.16 710.51,-691.17"/>
<polygon fill="black" stroke="black" points="712.71,-693.9 718.95,-685.34 708.74,-688.14 712.71,-693.9"/>
<text text-anchor="middle" x="690.65" y="-708.8" font-family="Times,serif" font-size="14.00">2</text>
</g>
<!-- treat_file -->
<g id="node7" class="node">
<title>treat_file</title>
<ellipse fill="none" stroke="black" cx="506.15" cy="-669" rx="42.49" ry="18"/>
<text text-anchor="middle" x="506.15" y="-665.3" font-family="Times,serif" font-size="14.00">treat_file</text>
</g>
<!-- main&#45;&gt;treat_file -->
<g id="edge6" class="edge">
<title>main&#45;&gt;treat_file</title>
<path fill="none" stroke="black" d="M600.65,-741.72C582.91,-728.26 555.19,-707.22 534.35,-691.4"/>
<polygon fill="black" stroke="black" points="536.25,-688.45 526.17,-685.2 532.02,-694.03 536.25,-688.45"/>
<text text-anchor="middle" x="572.65" y="-708.8" font-family="Times,serif" font-size="14.00">1</text>
</g>
<!-- do_exit -->
<g id="node37" class="node">
<title>do_exit</title>
<ellipse fill="none" stroke="black" cx="849.15" cy="-669" rx="37.09" ry="18"/>
<text text-anchor="middle" x="849.15" y="-665.3" font-family="Times,serif" font-size="14.00">do_exit</text>
</g>
<!-- main&#45;&gt;do_exit -->
<g id="edge46" class="edge">
<title>main&#45;&gt;do_exit</title>
<path fill="none" stroke="black" d="M642.39,-746.1C677.75,-733.13 745.51,-708.24 803.15,-687 805.68,-686.07 808.29,-685.1 810.92,-684.13"/>
<polygon fill="black" stroke="black" points="812.27,-687.37 820.44,-680.62 809.85,-680.8 812.27,-687.37"/>
<text text-anchor="middle" x="756.65" y="-708.8" font-family="Times,serif" font-size="14.00">1</text>
</g>
<!-- _getopt_internal -->
<g id="node5" class="node">
<title>_getopt_internal</title>
<ellipse fill="none" stroke="black" cx="795.15" cy="-582" rx="68.49" ry="18"/>
<text text-anchor="middle" x="795.15" y="-578.3" font-family="Times,serif" font-size="14.00">_getopt_internal</text>
</g>
<!-- getopt_long&#45;&gt;_getopt_internal -->
<g id="edge4" class="edge">
<title>getopt_long&#45;&gt;_getopt_internal</title>
<path fill="none" stroke="black" d="M751.81,-651.21C759.53,-639.06 770.1,-622.43 778.86,-608.63"/>
<polygon fill="black" stroke="black" points="781.91,-610.37 784.31,-600.05 776,-606.61 781.91,-610.37"/>
<text text-anchor="middle" x="775.65" y="-621.8" font-family="Times,serif" font-size="14.00">2</text>
</g>
<!-- my_index -->
<g id="node6" class="node">
<title>my_index</title>
<ellipse fill="none" stroke="black" cx="809.15" cy="-495" rx="46.29" ry="18"/>
<text text-anchor="middle" x="809.15" y="-491.3" font-family="Times,serif" font-size="14.00">my_index</text>
</g>
<!-- _getopt_internal&#45;&gt;my_index -->
<g id="edge5" class="edge">
<title>_getopt_internal&#45;&gt;my_index</title>
<path fill="none" stroke="black" d="M797.98,-563.8C799.9,-552.16 802.47,-536.55 804.66,-523.24"/>
<polygon fill="black" stroke="black" points="808.15,-523.61 806.32,-513.18 801.24,-522.47 808.15,-523.61"/>
<text text-anchor="middle" x="806.65" y="-534.8" font-family="Times,serif" font-size="14.00">1</text>
</g>
<!-- get_istat -->
<g id="node8" class="node">
<title>get_istat</title>
<ellipse fill="none" stroke="black" cx="506.15" cy="-582" rx="40.09" ry="18"/>
<text text-anchor="middle" x="506.15" y="-578.3" font-family="Times,serif" font-size="14.00">get_istat</text>
</g>
<!-- treat_file&#45;&gt;get_istat -->
<g id="edge7" class="edge">
<title>treat_file&#45;&gt;get_istat</title>
<path fill="none" stroke="black" d="M506.15,-650.8C506.15,-639.16 506.15,-623.55 506.15,-610.24"/>
<polygon fill="black" stroke="black" points="509.65,-610.18 506.15,-600.18 502.65,-610.18 509.65,-610.18"/>
<text text-anchor="middle" x="509.65" y="-621.8" font-family="Times,serif" font-size="14.00">1</text>
</g>
<!-- clear_bufs -->
<g id="node10" class="node">
<title>clear_bufs</title>
<ellipse fill="none" stroke="black" cx="612.15" cy="-582" rx="47.39" ry="18"/>
<text text-anchor="middle" x="612.15" y="-578.3" font-family="Times,serif" font-size="14.00">clear_bufs</text>
</g>
<!-- treat_file&#45;&gt;clear_bufs -->
<g id="edge9" class="edge">
<title>treat_file&#45;&gt;clear_bufs</title>
<path fill="none" stroke="black" d="M525.1,-652.8C541.7,-639.49 566.02,-619.99 584.74,-604.97"/>
<polygon fill="black" stroke="black" points="587.03,-607.63 592.64,-598.64 582.65,-602.17 587.03,-607.63"/>
<text text-anchor="middle" x="569.65" y="-621.8" font-family="Times,serif" font-size="14.00">1</text>
</g>
<!-- zip -->
<g id="node11" class="node">
<title>zip</title>
<ellipse fill="none" stroke="black" cx="408.15" cy="-582" rx="27" ry="18"/>
<text text-anchor="middle" x="408.15" y="-578.3" font-family="Times,serif" font-size="14.00">zip</text>
</g>
<!-- treat_file&#45;&gt;zip -->
<g id="edge10" class="edge">
<title>treat_file&#45;&gt;zip</title>
<path fill="none" stroke="black" d="M488.17,-652.41C472.41,-638.74 449.36,-618.75 432.04,-603.73"/>
<polygon fill="black" stroke="black" points="433.91,-600.71 424.06,-596.8 429.32,-606 433.91,-600.71"/>
<text text-anchor="middle" x="466.65" y="-621.8" font-family="Times,serif" font-size="14.00">1</text>
</g>
<!-- do_stat -->
<g id="node9" class="node">
<title>do_stat</title>
<ellipse fill="none" stroke="black" cx="708.15" cy="-495" rx="36.29" ry="18"/>
<text text-anchor="middle" x="708.15" y="-491.3" font-family="Times,serif" font-size="14.00">do_stat</text>
</g>
<!-- get_istat&#45;&gt;do_stat -->
<g id="edge8" class="edge">
<title>get_istat&#45;&gt;do_stat</title>
<path fill="none" stroke="black" d="M534.66,-569C570.65,-553.86 632.6,-527.79 671.91,-511.25"/>
<polygon fill="black" stroke="black" points="673.53,-514.36 681.39,-507.26 670.81,-507.91 673.53,-514.36"/>
<text text-anchor="middle" x="623.65" y="-534.8" font-family="Times,serif" font-size="14.00">1</text>
</g>
<!-- zip&#45;&gt;basename -->
<g id="edge21" class="edge">
<title>zip&#45;&gt;basename</title>
<path fill="none" stroke="black" d="M381.26,-580.12C315.66,-577.64 149.1,-569.18 99.15,-546 86.29,-540.03 74.53,-529.71 65.38,-519.99"/>
<polygon fill="black" stroke="black" points="67.89,-517.55 58.62,-512.42 62.67,-522.21 67.89,-517.55"/>
<text text-anchor="middle" x="102.65" y="-534.8" font-family="Times,serif" font-size="14.00">1</text>
</g>
<!-- updcrc -->
<g id="node12" class="node">
<title>updcrc</title>
<ellipse fill="none" stroke="black" cx="155.15" cy="-192" rx="34.39" ry="18"/>
<text text-anchor="middle" x="155.15" y="-188.3" font-family="Times,serif" font-size="14.00">updcrc</text>
</g>
<!-- zip&#45;&gt;updcrc -->
<g id="edge11" class="edge">
<title>zip&#45;&gt;updcrc</title>
<path fill="none" stroke="black" d="M381.31,-578.85C309.81,-572.39 120.15,-550.15 120.15,-496 120.15,-496 120.15,-496 120.15,-299 120.15,-270.56 131.65,-239.89 141.47,-218.9"/>
<polygon fill="black" stroke="black" points="144.71,-220.22 145.95,-209.7 138.42,-217.15 144.71,-220.22"/>
<text text-anchor="middle" x="123.65" y="-383.3" font-family="Times,serif" font-size="14.00">1</text>
</g>
<!-- bi_init -->
<g id="node13" class="node">
<title>bi_init</title>
<ellipse fill="none" stroke="black" cx="490.15" cy="-495" rx="33.6" ry="18"/>
<text text-anchor="middle" x="490.15" y="-491.3" font-family="Times,serif" font-size="14.00">bi_init</text>
</g>
<!-- zip&#45;&gt;bi_init -->
<g id="edge12" class="edge">
<title>zip&#45;&gt;bi_init</title>
<path fill="none" stroke="black" d="M423.53,-566.96C430.28,-560.67 438.23,-553.09 445.15,-546 453.51,-537.42 462.4,-527.69 470.05,-519.11"/>
<polygon fill="black" stroke="black" points="472.67,-521.42 476.67,-511.61 467.43,-516.79 472.67,-521.42"/>
<text text-anchor="middle" x="462.65" y="-534.8" font-family="Times,serif" font-size="14.00">1</text>
</g>
<!-- ct_init -->
<g id="node14" class="node">
<title>ct_init</title>
<ellipse fill="none" stroke="black" cx="582.15" cy="-387" rx="33.29" ry="18"/>
<text text-anchor="middle" x="582.15" y="-383.3" font-family="Times,serif" font-size="14.00">ct_init</text>
</g>
<!-- zip&#45;&gt;ct_init -->
<g id="edge13" class="edge">
<title>zip&#45;&gt;ct_init</title>
<path fill="none" stroke="black" d="M409.25,-563.88C412.37,-530.78 424.25,-458.19 469.15,-423 494.43,-403.18 508.59,-414.92 539.15,-405 541.71,-404.17 544.33,-403.26 546.97,-402.32"/>
<polygon fill="black" stroke="black" points="548.28,-405.56 556.41,-398.78 545.82,-399.01 548.28,-405.56"/>
<text text-anchor="middle" x="433.65" y="-491.3" font-family="Times,serif" font-size="14.00">1</text>
</g>
<!-- lm_init -->
<g id="node18" class="node">
<title>lm_init</title>
<ellipse fill="none" stroke="black" cx="207.15" cy="-441" rx="36.29" ry="18"/>
<text text-anchor="middle" x="207.15" y="-437.3" font-family="Times,serif" font-size="14.00">lm_init</text>
</g>
<!-- zip&#45;&gt;lm_init -->
<g id="edge18" class="edge">
<title>zip&#45;&gt;lm_init</title>
<path fill="none" stroke="black" d="M389.95,-568.42C354.95,-544.21 277.97,-490.98 235.93,-461.91"/>
<polygon fill="black" stroke="black" points="237.74,-458.9 227.52,-456.09 233.76,-464.66 237.74,-458.9"/>
<text text-anchor="middle" x="361.65" y="-534.8" font-family="Times,serif" font-size="14.00">1</text>
</g>
<!-- deflate -->
<g id="node20" class="node">
<title>deflate</title>
<ellipse fill="none" stroke="black" cx="361.15" cy="-495" rx="34.39" ry="18"/>
<text text-anchor="middle" x="361.15" y="-491.3" font-family="Times,serif" font-size="14.00">deflate</text>
</g>
<!-- zip&#45;&gt;deflate -->
<g id="edge22" class="edge">
<title>zip&#45;&gt;deflate</title>
<path fill="none" stroke="black" d="M399.08,-564.61C392.37,-552.46 383.08,-535.66 375.37,-521.73"/>
<polygon fill="black" stroke="black" points="378.24,-519.69 370.34,-512.63 372.12,-523.07 378.24,-519.69"/>
<text text-anchor="middle" x="391.65" y="-534.8" font-family="Times,serif" font-size="14.00">1</text>
</g>
<!-- flush_outbuf -->
<g id="node35" class="node">
<title>flush_outbuf</title>
<ellipse fill="none" stroke="black" cx="598.15" cy="-495" rx="55.79" ry="18"/>
<text text-anchor="middle" x="598.15" y="-491.3" font-family="Times,serif" font-size="14.00">flush_outbuf</text>
</g>
<!-- zip&#45;&gt;flush_outbuf -->
<g id="edge44" class="edge">
<title>zip&#45;&gt;flush_outbuf</title>
<path fill="none" stroke="black" d="M429.94,-571.25C460.94,-557.38 518.33,-531.71 557.37,-514.24"/>
<polygon fill="black" stroke="black" points="559.17,-517.27 566.87,-509.99 556.31,-510.88 559.17,-517.27"/>
<text text-anchor="middle" x="518.65" y="-534.8" font-family="Times,serif" font-size="14.00">1</text>
</g>
<!-- gen_codes -->
<g id="node15" class="node">
<title>gen_codes</title>
<ellipse fill="none" stroke="black" cx="587.15" cy="-105" rx="48.19" ry="18"/>
<text text-anchor="middle" x="587.15" y="-101.3" font-family="Times,serif" font-size="14.00">gen_codes</text>
</g>
<!-- ct_init&#45;&gt;gen_codes -->
<g id="edge14" class="edge">
<title>ct_init&#45;&gt;gen_codes</title>
<path fill="none" stroke="black" d="M582.45,-368.91C583.29,-321.95 585.63,-190.65 586.66,-133.34"/>
<polygon fill="black" stroke="black" points="590.16,-133.29 586.84,-123.23 583.16,-133.16 590.16,-133.29"/>
<text text-anchor="middle" x="588.65" y="-242.3" font-family="Times,serif" font-size="14.00">1</text>
</g>
<!-- bi_reverse -->
<g id="node16" class="node">
<title>bi_reverse</title>
<ellipse fill="none" stroke="black" cx="527.15" cy="-18" rx="47.39" ry="18"/>
<text text-anchor="middle" x="527.15" y="-14.3" font-family="Times,serif" font-size="14.00">bi_reverse</text>
</g>
<!-- ct_init&#45;&gt;bi_reverse -->
<g id="edge16" class="edge">
<title>ct_init&#45;&gt;bi_reverse</title>
<path fill="none" stroke="black" d="M560.84,-372.91C539.93,-358.23 511.15,-332.34 511.15,-301 511.15,-301 511.15,-301 511.15,-104 511.15,-84.41 515.3,-62.72 519.37,-46.15"/>
<polygon fill="black" stroke="black" points="522.86,-46.64 522,-36.08 516.09,-44.88 522.86,-46.64"/>
<text text-anchor="middle" x="518.15" y="-188.3" font-family="Times,serif" font-size="14.00">30</text>
</g>
<!-- init_block -->
<g id="node17" class="node">
<title>init_block</title>
<ellipse fill="none" stroke="black" cx="437.15" cy="-300" rx="46.29" ry="18"/>
<text text-anchor="middle" x="437.15" y="-296.3" font-family="Times,serif" font-size="14.00">init_block</text>
</g>
<!-- ct_init&#45;&gt;init_block -->
<g id="edge17" class="edge">
<title>ct_init&#45;&gt;init_block</title>
<path fill="none" stroke="black" d="M556.93,-375.22C551.15,-372.97 544.99,-370.76 539.15,-369 502.17,-357.86 483.03,-376.63 454.15,-351 447.52,-345.12 443.47,-336.54 441,-328.15"/>
<polygon fill="black" stroke="black" points="444.36,-327.16 438.7,-318.2 437.54,-328.73 444.36,-327.16"/>
<text text-anchor="middle" x="457.65" y="-339.8" font-family="Times,serif" font-size="14.00">1</text>
</g>
<!-- gen_codes&#45;&gt;bi_reverse -->
<g id="edge15" class="edge">
<title>gen_codes&#45;&gt;bi_reverse</title>
<path fill="none" stroke="black" d="M575.29,-87.21C566.52,-74.79 554.44,-57.67 544.58,-43.7"/>
<polygon fill="black" stroke="black" points="547.4,-41.62 538.77,-35.47 541.68,-45.66 547.4,-41.62"/>
<text text-anchor="middle" x="571.65" y="-57.8" font-family="Times,serif" font-size="14.00">365</text>
</g>
<!-- file_read -->
<g id="node19" class="node">
<title>file_read</title>
<ellipse fill="none" stroke="black" cx="190.15" cy="-300" rx="42.49" ry="18"/>
<text text-anchor="middle" x="190.15" y="-296.3" font-family="Times,serif" font-size="14.00">file_read</text>
</g>
<!-- lm_init&#45;&gt;file_read -->
<g id="edge19" class="edge">
<title>lm_init&#45;&gt;file_read</title>
<path fill="none" stroke="black" d="M187.66,-425.69C181.49,-420.02 175.43,-412.94 172.15,-405 161.73,-379.86 169.46,-348.9 177.78,-327.32"/>
<polygon fill="black" stroke="black" points="181.11,-328.42 181.71,-317.84 174.65,-325.74 181.11,-328.42"/>
<text text-anchor="middle" x="175.65" y="-383.3" font-family="Times,serif" font-size="14.00">1</text>
</g>
<!-- file_read&#45;&gt;updcrc -->
<g id="edge20" class="edge">
<title>file_read&#45;&gt;updcrc</title>
<path fill="none" stroke="black" d="M184.52,-281.97C178.96,-265.12 170.37,-239.1 163.91,-219.54"/>
<polygon fill="black" stroke="black" points="167.21,-218.39 160.76,-209.99 160.57,-220.58 167.21,-218.39"/>
<text text-anchor="middle" x="181.65" y="-242.3" font-family="Times,serif" font-size="14.00">1</text>
</g>
<!-- ct_tally -->
<g id="node21" class="node">
<title>ct_tally</title>
<ellipse fill="none" stroke="black" cx="351.15" cy="-387" rx="37.09" ry="18"/>
<text text-anchor="middle" x="351.15" y="-383.3" font-family="Times,serif" font-size="14.00">ct_tally</text>
</g>
<!-- deflate&#45;&gt;ct_tally -->
<g id="edge23" class="edge">
<title>deflate&#45;&gt;ct_tally</title>
<path fill="none" stroke="black" d="M355.93,-477.07C354.41,-471.38 352.94,-464.97 352.15,-459 350.23,-444.68 349.86,-428.59 350.02,-415.36"/>
<polygon fill="black" stroke="black" points="353.53,-415.09 350.26,-405.01 346.53,-414.93 353.53,-415.09"/>
<text text-anchor="middle" x="362.65" y="-437.3" font-family="Times,serif" font-size="14.00">612</text>
</g>
<!-- longest_match -->
<g id="node22" class="node">
<title>longest_match</title>
<ellipse fill="none" stroke="black" cx="468.15" cy="-387" rx="62.29" ry="18"/>
<text text-anchor="middle" x="468.15" y="-383.3" font-family="Times,serif" font-size="14.00">longest_match</text>
</g>
<!-- deflate&#45;&gt;longest_match -->
<g id="edge24" class="edge">
<title>deflate&#45;&gt;longest_match</title>
<path fill="none" stroke="black" d="M367.95,-477.16C375.59,-458.84 388.01,-431.09 396.15,-423 403.02,-416.16 411.5,-410.45 420.19,-405.76"/>
<polygon fill="black" stroke="black" points="421.88,-408.83 429.27,-401.24 418.76,-402.57 421.88,-408.83"/>
<text text-anchor="middle" x="406.65" y="-437.3" font-family="Times,serif" font-size="14.00">778</text>
</g>
<!-- fill_window -->
<g id="node23" class="node">
<title>fill_window</title>
<ellipse fill="none" stroke="black" cx="242.15" cy="-387" rx="53.89" ry="18"/>
<text text-anchor="middle" x="242.15" y="-383.3" font-family="Times,serif" font-size="14.00">fill_window</text>
</g>
<!-- deflate&#45;&gt;fill_window -->
<g id="edge25" class="edge">
<title>deflate&#45;&gt;fill_window</title>
<path fill="none" stroke="black" d="M344.35,-479.04C324.52,-461.37 291.32,-431.8 268.15,-411.17"/>
<polygon fill="black" stroke="black" points="270.21,-408.31 260.42,-404.28 265.56,-413.54 270.21,-408.31"/>
<text text-anchor="middle" x="323.65" y="-437.3" font-family="Times,serif" font-size="14.00">1</text>
</g>
<!-- flush_block -->
<g id="node24" class="node">
<title>flush_block</title>
<ellipse fill="none" stroke="black" cx="745.15" cy="-387" rx="51.99" ry="18"/>
<text text-anchor="middle" x="745.15" y="-383.3" font-family="Times,serif" font-size="14.00">flush_block</text>
</g>
<!-- deflate&#45;&gt;flush_block -->
<g id="edge27" class="edge">
<title>deflate&#45;&gt;flush_block</title>
<path fill="none" stroke="black" d="M388.43,-483.9C395.17,-481.53 402.39,-479.09 409.15,-477 508.96,-446.16 627.42,-416.33 693.67,-400.25"/>
<polygon fill="black" stroke="black" points="694.56,-403.64 703.46,-397.88 692.91,-396.83 694.56,-403.64"/>
<text text-anchor="middle" x="603.65" y="-437.3" font-family="Times,serif" font-size="14.00">1</text>
</g>
<!-- fill_window&#45;&gt;file_read -->
<g id="edge26" class="edge">
<title>fill_window&#45;&gt;file_read</title>
<path fill="none" stroke="black" d="M231.87,-369.21C224.39,-356.98 214.14,-340.21 205.66,-326.36"/>
<polygon fill="black" stroke="black" points="208.6,-324.46 200.4,-317.76 202.63,-328.12 208.6,-324.46"/>
<text text-anchor="middle" x="223.65" y="-339.8" font-family="Times,serif" font-size="14.00">1</text>
</g>
<!-- flush_block&#45;&gt;init_block -->
<g id="edge42" class="edge">
<title>flush_block&#45;&gt;init_block</title>
<path fill="none" stroke="black" d="M705.82,-375.15C648.98,-359.46 544.06,-330.51 483.52,-313.8"/>
<polygon fill="black" stroke="black" points="484.41,-310.41 473.84,-311.13 482.54,-317.16 484.41,-310.41"/>
<text text-anchor="middle" x="613.65" y="-339.8" font-family="Times,serif" font-size="14.00">1</text>
</g>
<!-- build_tree -->
<g id="node25" class="node">
<title>build_tree</title>
<ellipse fill="none" stroke="black" cx="656.15" cy="-192" rx="46.29" ry="18"/>
<text text-anchor="middle" x="656.15" y="-188.3" font-family="Times,serif" font-size="14.00">build_tree</text>
</g>
<!-- flush_block&#45;&gt;build_tree -->
<g id="edge28" class="edge">
<title>flush_block&#45;&gt;build_tree</title>
<path fill="none" stroke="black" d="M721.27,-370.93C704.28,-358.82 682.52,-340.2 671.15,-318 655.38,-287.23 653.37,-246.75 654.14,-220.32"/>
<polygon fill="black" stroke="black" points="657.64,-220.4 654.58,-210.25 650.64,-220.09 657.64,-220.4"/>
<text text-anchor="middle" x="674.65" y="-296.3" font-family="Times,serif" font-size="14.00">2</text>
</g>
<!-- build_bl_tree -->
<g id="node28" class="node">
<title>build_bl_tree</title>
<ellipse fill="none" stroke="black" cx="745.15" cy="-300" rx="57.69" ry="18"/>
<text text-anchor="middle" x="745.15" y="-296.3" font-family="Times,serif" font-size="14.00">build_bl_tree</text>
</g>
<!-- flush_block&#45;&gt;build_bl_tree -->
<g id="edge32" class="edge">
<title>flush_block&#45;&gt;build_bl_tree</title>
<path fill="none" stroke="black" d="M745.15,-368.8C745.15,-357.16 745.15,-341.55 745.15,-328.24"/>
<polygon fill="black" stroke="black" points="748.65,-328.18 745.15,-318.18 741.65,-328.18 748.65,-328.18"/>
<text text-anchor="middle" x="748.65" y="-339.8" font-family="Times,serif" font-size="14.00">1</text>
</g>
<!-- send_bits -->
<g id="node30" class="node">
<title>send_bits</title>
<ellipse fill="none" stroke="black" cx="952.15" cy="-105" rx="44.39" ry="18"/>
<text text-anchor="middle" x="952.15" y="-101.3" font-family="Times,serif" font-size="14.00">send_bits</text>
</g>
<!-- flush_block&#45;&gt;send_bits -->
<g id="edge35" class="edge">
<title>flush_block&#45;&gt;send_bits</title>
<path fill="none" stroke="black" d="M763.92,-370.09C778.39,-357.13 798.23,-337.79 812.15,-318 862.34,-246.61 839.22,-206.27 897.15,-141 902.59,-134.87 909.35,-129.41 916.25,-124.72"/>
<polygon fill="black" stroke="black" points="918.39,-127.51 924.98,-119.22 914.66,-121.59 918.39,-127.51"/>
<text text-anchor="middle" x="855.65" y="-242.3" font-family="Times,serif" font-size="14.00">1</text>
</g>
<!-- send_all_trees -->
<g id="node31" class="node">
<title>send_all_trees</title>
<ellipse fill="none" stroke="black" cx="925.15" cy="-300" rx="61.19" ry="18"/>
<text text-anchor="middle" x="925.15" y="-296.3" font-family="Times,serif" font-size="14.00">send_all_trees</text>
</g>
<!-- flush_block&#45;&gt;send_all_trees -->
<g id="edge36" class="edge">
<title>flush_block&#45;&gt;send_all_trees</title>
<path fill="none" stroke="black" d="M785.02,-375.44C805.07,-369.45 829.43,-361.13 850.15,-351 866.06,-343.22 882.56,-332.54 896.03,-323.05"/>
<polygon fill="black" stroke="black" points="898.32,-325.71 904.4,-317.03 894.24,-320.03 898.32,-325.71"/>
<text text-anchor="middle" x="879.65" y="-339.8" font-family="Times,serif" font-size="14.00">1</text>
</g>
<!-- compress_block -->
<g id="node33" class="node">
<title>compress_block</title>
<ellipse fill="none" stroke="black" cx="1026.15" cy="-246" rx="68.49" ry="18"/>
<text text-anchor="middle" x="1026.15" y="-242.3" font-family="Times,serif" font-size="14.00">compress_block</text>
</g>
<!-- flush_block&#45;&gt;compress_block -->
<g id="edge40" class="edge">
<title>flush_block&#45;&gt;compress_block</title>
<path fill="none" stroke="black" d="M783.79,-374.9C791.19,-372.87 798.89,-370.81 806.15,-369 890.55,-347.88 930.19,-375.88 995.15,-318 1008.04,-306.51 1015.8,-288.69 1020.33,-273.78"/>
<polygon fill="black" stroke="black" points="1023.73,-274.6 1022.97,-264.03 1016.97,-272.77 1023.73,-274.6"/>
<text text-anchor="middle" x="975.65" y="-339.8" font-family="Times,serif" font-size="14.00">1</text>
</g>
<!-- bi_windup -->
<g id="node34" class="node">
<title>bi_windup</title>
<ellipse fill="none" stroke="black" cx="1090.15" cy="-300" rx="48.19" ry="18"/>
<text text-anchor="middle" x="1090.15" y="-296.3" font-family="Times,serif" font-size="14.00">bi_windup</text>
</g>
<!-- flush_block&#45;&gt;bi_windup -->
<g id="edge43" class="edge">
<title>flush_block&#45;&gt;bi_windup</title>
<path fill="none" stroke="black" d="M782.63,-374.35C790.35,-372.29 798.46,-370.37 806.15,-369 902.28,-351.81 934.05,-386.21 1025.15,-351 1040.68,-344.99 1055.6,-334.03 1067.21,-323.9"/>
<polygon fill="black" stroke="black" points="1069.65,-326.41 1074.69,-317.09 1064.94,-321.24 1069.65,-326.41"/>
<text text-anchor="middle" x="1053.65" y="-339.8" font-family="Times,serif" font-size="14.00">1</text>
</g>
<!-- build_tree&#45;&gt;gen_codes -->
<g id="edge31" class="edge">
<title>build_tree&#45;&gt;gen_codes</title>
<path fill="none" stroke="black" d="M642.84,-174.61C632.63,-162.03 618.37,-144.46 606.83,-130.25"/>
<polygon fill="black" stroke="black" points="609.43,-127.9 600.41,-122.34 603.99,-132.31 609.43,-127.9"/>
<text text-anchor="middle" x="629.65" y="-144.8" font-family="Times,serif" font-size="14.00">3</text>
</g>
<!-- pqdownheap -->
<g id="node26" class="node">
<title>pqdownheap</title>
<ellipse fill="none" stroke="black" cx="709.15" cy="-105" rx="55.79" ry="18"/>
<text text-anchor="middle" x="709.15" y="-101.3" font-family="Times,serif" font-size="14.00">pqdownheap</text>
</g>
<!-- build_tree&#45;&gt;pqdownheap -->
<g id="edge29" class="edge">
<title>build_tree&#45;&gt;pqdownheap</title>
<path fill="none" stroke="black" d="M666.62,-174.21C674.24,-161.98 684.69,-145.21 693.33,-131.36"/>
<polygon fill="black" stroke="black" points="696.38,-133.1 698.7,-122.76 690.44,-129.39 696.38,-133.1"/>
<text text-anchor="middle" x="696.65" y="-144.8" font-family="Times,serif" font-size="14.00">186</text>
</g>
<!-- gen_bitlen -->
<g id="node27" class="node">
<title>gen_bitlen</title>
<ellipse fill="none" stroke="black" cx="831.15" cy="-105" rx="48.19" ry="18"/>
<text text-anchor="middle" x="831.15" y="-101.3" font-family="Times,serif" font-size="14.00">gen_bitlen</text>
</g>
<!-- build_tree&#45;&gt;gen_bitlen -->
<g id="edge30" class="edge">
<title>build_tree&#45;&gt;gen_bitlen</title>
<path fill="none" stroke="black" d="M683.88,-177.53C713.52,-163.13 760.71,-140.21 793.66,-124.21"/>
<polygon fill="black" stroke="black" points="795.5,-127.2 802.97,-119.69 792.44,-120.91 795.5,-127.2"/>
<text text-anchor="middle" x="757.65" y="-144.8" font-family="Times,serif" font-size="14.00">3</text>
</g>
<!-- build_bl_tree&#45;&gt;build_tree -->
<g id="edge34" class="edge">
<title>build_bl_tree&#45;&gt;build_tree</title>
<path fill="none" stroke="black" d="M731.24,-282.44C716.54,-264.94 693.22,-237.16 676.47,-217.2"/>
<polygon fill="black" stroke="black" points="679.07,-214.85 669.95,-209.45 673.7,-219.36 679.07,-214.85"/>
<text text-anchor="middle" x="717.65" y="-242.3" font-family="Times,serif" font-size="14.00">1</text>
</g>
<!-- scan_tree -->
<g id="node29" class="node">
<title>scan_tree</title>
<ellipse fill="none" stroke="black" cx="764.15" cy="-192" rx="44.39" ry="18"/>
<text text-anchor="middle" x="764.15" y="-188.3" font-family="Times,serif" font-size="14.00">scan_tree</text>
</g>
<!-- build_bl_tree&#45;&gt;scan_tree -->
<g id="edge33" class="edge">
<title>build_bl_tree&#45;&gt;scan_tree</title>
<path fill="none" stroke="black" d="M748.2,-281.97C751.19,-265.28 755.8,-239.58 759.29,-220.08"/>
<polygon fill="black" stroke="black" points="762.78,-220.45 761.1,-209.99 755.89,-219.21 762.78,-220.45"/>
<text text-anchor="middle" x="761.65" y="-242.3" font-family="Times,serif" font-size="14.00">2</text>
</g>
<!-- send_all_trees&#45;&gt;send_bits -->
<g id="edge37" class="edge">
<title>send_all_trees&#45;&gt;send_bits</title>
<path fill="none" stroke="black" d="M913.86,-282.08C899.11,-257.73 876.75,-211.6 891.15,-174 897.95,-156.21 911.8,-140.15 924.58,-128.11"/>
<polygon fill="black" stroke="black" points="927.22,-130.44 932.32,-121.15 922.54,-125.23 927.22,-130.44"/>
<text text-anchor="middle" x="898.15" y="-188.3" font-family="Times,serif" font-size="14.00">19</text>
</g>
<!-- send_tree -->
<g id="node32" class="node">
<title>send_tree</title>
<ellipse fill="none" stroke="black" cx="958.15" cy="-192" rx="44.39" ry="18"/>
<text text-anchor="middle" x="958.15" y="-188.3" font-family="Times,serif" font-size="14.00">send_tree</text>
</g>
<!-- send_all_trees&#45;&gt;send_tree -->
<g id="edge38" class="edge">
<title>send_all_trees&#45;&gt;send_tree</title>
<path fill="none" stroke="black" d="M929.53,-281.96C933.35,-267.5 939.19,-246.26 945.15,-228 946.05,-225.23 947.04,-222.35 948.05,-219.48"/>
<polygon fill="black" stroke="black" points="951.38,-220.59 951.52,-209.99 944.8,-218.18 951.38,-220.59"/>
<text text-anchor="middle" x="948.65" y="-242.3" font-family="Times,serif" font-size="14.00">2</text>
</g>
<!-- send_tree&#45;&gt;send_bits -->
<g id="edge39" class="edge">
<title>send_tree&#45;&gt;send_bits</title>
<path fill="none" stroke="black" d="M956.93,-173.8C956.11,-162.16 955.01,-146.55 954.07,-133.24"/>
<polygon fill="black" stroke="black" points="957.55,-132.9 953.36,-123.18 950.57,-133.4 957.55,-132.9"/>
<text text-anchor="middle" x="963.15" y="-144.8" font-family="Times,serif" font-size="14.00">84</text>
</g>
<!-- compress_block&#45;&gt;send_bits -->
<g id="edge41" class="edge">
<title>compress_block&#45;&gt;send_bits</title>
<path fill="none" stroke="black" d="M1024.95,-227.86C1023.36,-212.96 1019.67,-191.15 1011.15,-174 1002.73,-157.08 989.11,-140.97 977.07,-128.69"/>
<polygon fill="black" stroke="black" points="979.41,-126.09 969.84,-121.56 974.5,-131.07 979.41,-126.09"/>
<text text-anchor="middle" x="1035.15" y="-188.3" font-family="Times,serif" font-size="14.00">1894</text>
</g>
<!-- write_buf -->
<g id="node36" class="node">
<title>write_buf</title>
<ellipse fill="none" stroke="black" cx="860.15" cy="-387" rx="44.69" ry="18"/>
<text text-anchor="middle" x="860.15" y="-383.3" font-family="Times,serif" font-size="14.00">write_buf</text>
</g>
<!-- flush_outbuf&#45;&gt;write_buf -->
<g id="edge45" class="edge">
<title>flush_outbuf&#45;&gt;write_buf</title>
<path fill="none" stroke="black" d="M631.59,-480.47C679.81,-460.96 768.68,-425 820.25,-404.14"/>
<polygon fill="black" stroke="black" points="821.78,-407.3 829.74,-400.3 819.15,-400.81 821.78,-407.3"/>
<text text-anchor="middle" x="771.65" y="-437.3" font-family="Times,serif" font-size="14.00">1</text>
</g>
</g>
</svg>
