<?xml version="1.0" encoding="UTF-8" standalone="no"?>
<!DOCTYPE svg PUBLIC "-//W3C//DTD SVG 1.1//EN"
 "http://www.w3.org/Graphics/SVG/1.1/DTD/svg11.dtd">
<!-- Generated by graphviz version 3.0.0 (20220226.1711)
 -->
<!-- Title: G Pages: 1 -->
<svg width="1072pt" height="620pt"
 viewBox="0.00 0.00 1072.24 620.00" xmlns="http://www.w3.org/2000/svg" xmlns:xlink="http://www.w3.org/1999/xlink">
<g id="graph0" class="graph" transform="scale(1 1) rotate(0) translate(4 616)">
<title>G</title>
<polygon fill="white" stroke="transparent" points="-4,4 -4,-616 1068.24,-616 1068.24,4 -4,4"/>
<!-- main -->
<g id="node1" class="node">
<title>main</title>
<ellipse fill="none" stroke="black" cx="423.4" cy="-594" rx="28.7" ry="18"/>
<text text-anchor="middle" x="423.4" y="-590.3" font-family="Times,serif" font-size="14.00">main</text>
</g>
<!-- basename -->
<g id="node2" class="node">
<title>basename</title>
<ellipse fill="none" stroke="black" cx="137.4" cy="-378" rx="46.29" ry="18"/>
<text text-anchor="middle" x="137.4" y="-374.3" font-family="Times,serif" font-size="14.00">basename</text>
</g>
<!-- main&#45;&gt;basename -->
<g id="edge1" class="edge">
<title>main&#45;&gt;basename</title>
<path fill="none" stroke="black" d="M395.44,-589.38C338.98,-580.4 212.03,-551.48 156.4,-468 144.18,-449.67 139.64,-424.91 138.03,-406.16"/>
<polygon fill="black" stroke="black" points="141.52,-405.93 137.4,-396.17 134.54,-406.37 141.52,-405.93"/>
</g>
<!-- add_envopt -->
<g id="node3" class="node">
<title>add_envopt</title>
<ellipse fill="none" stroke="black" cx="423.4" cy="-522" rx="51.99" ry="18"/>
<text text-anchor="middle" x="423.4" y="-518.3" font-family="Times,serif" font-size="14.00">add_envopt</text>
</g>
<!-- main&#45;&gt;add_envopt -->
<g id="edge2" class="edge">
<title>main&#45;&gt;add_envopt</title>
<path fill="none" stroke="black" d="M423.4,-575.7C423.4,-567.98 423.4,-558.71 423.4,-550.11"/>
<polygon fill="black" stroke="black" points="426.9,-550.1 423.4,-540.1 419.9,-550.1 426.9,-550.1"/>
</g>
<!-- getopt_long -->
<g id="node4" class="node">
<title>getopt_long</title>
<ellipse fill="none" stroke="black" cx="546.4" cy="-522" rx="52.79" ry="18"/>
<text text-anchor="middle" x="546.4" y="-518.3" font-family="Times,serif" font-size="14.00">getopt_long</text>
</g>
<!-- main&#45;&gt;getopt_long -->
<g id="edge3" class="edge">
<title>main&#45;&gt;getopt_long</title>
<path fill="none" stroke="black" d="M443.98,-581.28C462.3,-570.86 489.46,-555.4 511.22,-543.02"/>
<polygon fill="black" stroke="black" points="513.2,-545.92 520.16,-537.93 509.74,-539.83 513.2,-545.92"/>
</g>
<!-- treat_file -->
<g id="node7" class="node">
<title>treat_file</title>
<ellipse fill="none" stroke="black" cx="311.4" cy="-522" rx="42.49" ry="18"/>
<text text-anchor="middle" x="311.4" y="-518.3" font-family="Times,serif" font-size="14.00">treat_file</text>
</g>
<!-- main&#45;&gt;treat_file -->
<g id="edge6" class="edge">
<title>main&#45;&gt;treat_file</title>
<path fill="none" stroke="black" d="M403.89,-580.81C387.04,-570.28 362.39,-554.87 342.77,-542.61"/>
<polygon fill="black" stroke="black" points="344.49,-539.56 334.15,-537.22 340.78,-545.49 344.49,-539.56"/>
</g>
<!-- do_exit -->
<g id="node37" class="node">
<title>do_exit</title>
<ellipse fill="none" stroke="black" cx="654.4" cy="-522" rx="37.09" ry="18"/>
<text text-anchor="middle" x="654.4" y="-518.3" font-family="Times,serif" font-size="14.00">do_exit</text>
</g>
<!-- main&#45;&gt;do_exit -->
<g id="edge46" class="edge">
<title>main&#45;&gt;do_exit</title>
<path fill="none" stroke="black" d="M449.32,-586.23C485.27,-576.7 552.2,-558.41 608.4,-540 611.13,-539.11 613.94,-538.15 616.76,-537.17"/>
<polygon fill="black" stroke="black" points="618.05,-540.42 626.29,-533.77 615.7,-533.83 618.05,-540.42"/>
</g>
<!-- _getopt_internal -->
<g id="node5" class="node">
<title>_getopt_internal</title>
<ellipse fill="none" stroke="black" cx="650.4" cy="-450" rx="68.49" ry="18"/>
<text text-anchor="middle" x="650.4" y="-446.3" font-family="Times,serif" font-size="14.00">_getopt_internal</text>
</g>
<!-- getopt_long&#45;&gt;_getopt_internal -->
<g id="edge4" class="edge">
<title>getopt_long&#45;&gt;_getopt_internal</title>
<path fill="none" stroke="black" d="M569.22,-505.64C583.55,-495.99 602.25,-483.41 618.08,-472.75"/>
<polygon fill="black" stroke="black" points="620.2,-475.54 626.54,-467.06 616.29,-469.74 620.2,-475.54"/>
</g>
<!-- my_index -->
<g id="node6" class="node">
<title>my_index</title>
<ellipse fill="none" stroke="black" cx="755.4" cy="-378" rx="46.29" ry="18"/>
<text text-anchor="middle" x="755.4" y="-374.3" font-family="Times,serif" font-size="14.00">my_index</text>
</g>
<!-- _getopt_internal&#45;&gt;my_index -->
<g id="edge5" class="edge">
<title>_getopt_internal&#45;&gt;my_index</title>
<path fill="none" stroke="black" d="M674.22,-433.12C689.13,-423.18 708.49,-410.27 724.56,-399.56"/>
<polygon fill="black" stroke="black" points="726.72,-402.32 733.1,-393.86 722.84,-396.5 726.72,-402.32"/>
</g>
<!-- get_istat -->
<g id="node8" class="node">
<title>get_istat</title>
<ellipse fill="none" stroke="black" cx="205.4" cy="-450" rx="40.09" ry="18"/>
<text text-anchor="middle" x="205.4" y="-446.3" font-family="Times,serif" font-size="14.00">get_istat</text>
</g>
<!-- treat_file&#45;&gt;get_istat -->
<g id="edge7" class="edge">
<title>treat_file&#45;&gt;get_istat</title>
<path fill="none" stroke="black" d="M289.43,-506.5C273.84,-496.2 252.71,-482.24 235.54,-470.9"/>
<polygon fill="black" stroke="black" points="237.24,-467.84 226.97,-465.25 233.39,-473.68 237.24,-467.84"/>
</g>
<!-- clear_bufs -->
<g id="node10" class="node">
<title>clear_bufs</title>
<ellipse fill="none" stroke="black" cx="311.4" cy="-450" rx="47.39" ry="18"/>
<text text-anchor="middle" x="311.4" y="-446.3" font-family="Times,serif" font-size="14.00">clear_bufs</text>
</g>
<!-- treat_file&#45;&gt;clear_bufs -->
<g id="edge9" class="edge">
<title>treat_file&#45;&gt;clear_bufs</title>
<path fill="none" stroke="black" d="M311.4,-503.7C311.4,-495.98 311.4,-486.71 311.4,-478.11"/>
<polygon fill="black" stroke="black" points="314.9,-478.1 311.4,-468.1 307.9,-478.1 314.9,-478.1"/>
</g>
<!-- zip -->
<g id="node11" class="node">
<title>zip</title>
<ellipse fill="none" stroke="black" cx="403.4" cy="-450" rx="27" ry="18"/>
<text text-anchor="middle" x="403.4" y="-446.3" font-family="Times,serif" font-size="14.00">zip</text>
</g>
<!-- treat_file&#45;&gt;zip -->
<g id="edge10" class="edge">
<title>treat_file&#45;&gt;zip</title>
<path fill="none" stroke="black" d="M331.36,-505.81C345.05,-495.39 363.34,-481.48 378.06,-470.28"/>
<polygon fill="black" stroke="black" points="380.42,-472.88 386.26,-464.04 376.18,-467.31 380.42,-472.88"/>
</g>
<!-- do_stat -->
<g id="node9" class="node">
<title>do_stat</title>
<ellipse fill="none" stroke="black" cx="36.4" cy="-378" rx="36.29" ry="18"/>
<text text-anchor="middle" x="36.4" y="-374.3" font-family="Times,serif" font-size="14.00">do_stat</text>
</g>
<!-- get_istat&#45;&gt;do_stat -->
<g id="edge8" class="edge">
<title>get_istat&#45;&gt;do_stat</title>
<path fill="none" stroke="black" d="M176.73,-437.13C148.18,-425.3 104.23,-407.1 73.13,-394.22"/>
<polygon fill="black" stroke="black" points="74.1,-390.83 63.53,-390.24 71.43,-397.3 74.1,-390.83"/>
</g>
<!-- zip&#45;&gt;basename -->
<g id="edge21" class="edge">
<title>zip&#45;&gt;basename</title>
<path fill="none" stroke="black" d="M382.8,-438.27C377.84,-435.97 372.51,-433.72 367.4,-432 294.21,-407.34 272.37,-414.54 197.4,-396 192.72,-394.84 187.85,-393.57 183,-392.27"/>
<polygon fill="black" stroke="black" points="183.71,-388.83 173.14,-389.55 181.86,-395.58 183.71,-388.83"/>
</g>
<!-- updcrc -->
<g id="node12" class="node">
<title>updcrc</title>
<ellipse fill="none" stroke="black" cx="202.4" cy="-162" rx="34.39" ry="18"/>
<text text-anchor="middle" x="202.4" y="-158.3" font-family="Times,serif" font-size="14.00">updcrc</text>
</g>
<!-- zip&#45;&gt;updcrc -->
<g id="edge11" class="edge">
<title>zip&#45;&gt;updcrc</title>
<path fill="none" stroke="black" d="M383.66,-437.52C342.35,-413.08 249.07,-355.57 230.4,-324 205.63,-282.13 201.48,-224.13 201.44,-190.39"/>
<polygon fill="black" stroke="black" points="204.94,-190.37 201.55,-180.33 197.94,-190.3 204.94,-190.37"/>
</g>
<!-- bi_init -->
<g id="node13" class="node">
<title>bi_init</title>
<ellipse fill="none" stroke="black" cx="527.4" cy="-378" rx="33.6" ry="18"/>
<text text-anchor="middle" x="527.4" y="-374.3" font-family="Times,serif" font-size="14.00">bi_init</text>
</g>
<!-- zip&#45;&gt;bi_init -->
<g id="edge12" class="edge">
<title>zip&#45;&gt;bi_init</title>
<path fill="none" stroke="black" d="M423.32,-437.75C442.94,-426.68 473.19,-409.6 496.03,-396.7"/>
<polygon fill="black" stroke="black" points="498.02,-399.6 505.01,-391.64 494.58,-393.51 498.02,-399.6"/>
</g>
<!-- ct_init -->
<g id="node14" class="node">
<title>ct_init</title>
<ellipse fill="none" stroke="black" cx="923.4" cy="-306" rx="33.29" ry="18"/>
<text text-anchor="middle" x="923.4" y="-302.3" font-family="Times,serif" font-size="14.00">ct_init</text>
</g>
<!-- zip&#45;&gt;ct_init -->
<g id="edge13" class="edge">
<title>zip&#45;&gt;ct_init</title>
<path fill="none" stroke="black" d="M415.98,-434.06C436.49,-409.89 475.7,-364.45 484.4,-360 611.04,-295.26 661.29,-341.9 802.4,-324 828.89,-320.64 858.58,-316.47 881.92,-313.11"/>
<polygon fill="black" stroke="black" points="882.44,-316.57 891.84,-311.67 881.44,-309.64 882.44,-316.57"/>
</g>
<!-- lm_init -->
<g id="node18" class="node">
<title>lm_init</title>
<ellipse fill="none" stroke="black" cx="275.4" cy="-306" rx="36.29" ry="18"/>
<text text-anchor="middle" x="275.4" y="-302.3" font-family="Times,serif" font-size="14.00">lm_init</text>
</g>
<!-- zip&#45;&gt;lm_init -->
<g id="edge18" class="edge">
<title>zip&#45;&gt;lm_init</title>
<path fill="none" stroke="black" d="M389.94,-434.07C367.76,-409.47 323.35,-360.2 296.82,-330.77"/>
<polygon fill="black" stroke="black" points="299.14,-328.11 289.84,-323.02 293.94,-332.8 299.14,-328.11"/>
</g>
<!-- deflate -->
<g id="node20" class="node">
<title>deflate</title>
<ellipse fill="none" stroke="black" cx="403.4" cy="-378" rx="34.39" ry="18"/>
<text text-anchor="middle" x="403.4" y="-374.3" font-family="Times,serif" font-size="14.00">deflate</text>
</g>
<!-- zip&#45;&gt;deflate -->
<g id="edge22" class="edge">
<title>zip&#45;&gt;deflate</title>
<path fill="none" stroke="black" d="M403.4,-431.7C403.4,-423.98 403.4,-414.71 403.4,-406.11"/>
<polygon fill="black" stroke="black" points="406.9,-406.1 403.4,-396.1 399.9,-406.1 406.9,-406.1"/>
</g>
<!-- flush_outbuf -->
<g id="node35" class="node">
<title>flush_outbuf</title>
<ellipse fill="none" stroke="black" cx="635.4" cy="-378" rx="55.79" ry="18"/>
<text text-anchor="middle" x="635.4" y="-374.3" font-family="Times,serif" font-size="14.00">flush_outbuf</text>
</g>
<!-- zip&#45;&gt;flush_outbuf -->
<g id="edge44" class="edge">
<title>zip&#45;&gt;flush_outbuf</title>
<path fill="none" stroke="black" d="M427.79,-441.64C465.23,-430.34 537.63,-408.5 586.24,-393.83"/>
<polygon fill="black" stroke="black" points="587.37,-397.15 595.93,-390.91 585.35,-390.44 587.37,-397.15"/>
</g>
<!-- gen_codes -->
<g id="node15" class="node">
<title>gen_codes</title>
<ellipse fill="none" stroke="black" cx="961.4" cy="-90" rx="48.19" ry="18"/>
<text text-anchor="middle" x="961.4" y="-86.3" font-family="Times,serif" font-size="14.00">gen_codes</text>
</g>
<!-- ct_init&#45;&gt;gen_codes -->
<g id="edge14" class="edge">
<title>ct_init&#45;&gt;gen_codes</title>
<path fill="none" stroke="black" d="M943.95,-291.71C956.48,-282.31 971.39,-268.47 978.4,-252 997.15,-207.89 983.37,-151.1 972.08,-118.1"/>
<polygon fill="black" stroke="black" points="975.23,-116.49 968.55,-108.27 968.64,-118.86 975.23,-116.49"/>
</g>
<!-- bi_reverse -->
<g id="node16" class="node">
<title>bi_reverse</title>
<ellipse fill="none" stroke="black" cx="999.4" cy="-18" rx="47.39" ry="18"/>
<text text-anchor="middle" x="999.4" y="-14.3" font-family="Times,serif" font-size="14.00">bi_reverse</text>
</g>
<!-- ct_init&#45;&gt;bi_reverse -->
<g id="edge16" class="edge">
<title>ct_init&#45;&gt;bi_reverse</title>
<path fill="none" stroke="black" d="M948.12,-293.85C964.84,-284.97 985.89,-270.89 997.4,-252 1039.29,-183.21 1032.19,-151.35 1018.4,-72 1016.83,-63 1013.88,-53.51 1010.76,-45.09"/>
<polygon fill="black" stroke="black" points="1014.01,-43.8 1007.09,-35.78 1007.5,-46.37 1014.01,-43.8"/>
</g>
<!-- init_block -->
<g id="node17" class="node">
<title>init_block</title>
<ellipse fill="none" stroke="black" cx="923.4" cy="-234" rx="46.29" ry="18"/>
<text text-anchor="middle" x="923.4" y="-230.3" font-family="Times,serif" font-size="14.00">init_block</text>
</g>
<!-- ct_init&#45;&gt;init_block -->
<g id="edge17" class="edge">
<title>ct_init&#45;&gt;init_block</title>
<path fill="none" stroke="black" d="M923.4,-287.7C923.4,-279.98 923.4,-270.71 923.4,-262.11"/>
<polygon fill="black" stroke="black" points="926.9,-262.1 923.4,-252.1 919.9,-262.1 926.9,-262.1"/>
</g>
<!-- gen_codes&#45;&gt;bi_reverse -->
<g id="edge15" class="edge">
<title>gen_codes&#45;&gt;bi_reverse</title>
<path fill="none" stroke="black" d="M970.6,-72.05C975.03,-63.89 980.44,-53.91 985.38,-44.82"/>
<polygon fill="black" stroke="black" points="988.59,-46.25 990.28,-35.79 982.44,-42.91 988.59,-46.25"/>
</g>
<!-- file_read -->
<g id="node19" class="node">
<title>file_read</title>
<ellipse fill="none" stroke="black" cx="281.4" cy="-234" rx="42.49" ry="18"/>
<text text-anchor="middle" x="281.4" y="-230.3" font-family="Times,serif" font-size="14.00">file_read</text>
</g>
<!-- lm_init&#45;&gt;file_read -->
<g id="edge19" class="edge">
<title>lm_init&#45;&gt;file_read</title>
<path fill="none" stroke="black" d="M276.88,-287.7C277.54,-279.98 278.34,-270.71 279.07,-262.11"/>
<polygon fill="black" stroke="black" points="282.56,-262.37 279.93,-252.1 275.59,-261.77 282.56,-262.37"/>
</g>
<!-- file_read&#45;&gt;updcrc -->
<g id="edge20" class="edge">
<title>file_read&#45;&gt;updcrc</title>
<path fill="none" stroke="black" d="M263.86,-217.46C252.9,-207.75 238.63,-195.1 226.6,-184.44"/>
<polygon fill="black" stroke="black" points="228.87,-181.79 219.07,-177.77 224.23,-187.02 228.87,-181.79"/>
</g>
<!-- ct_tally -->
<g id="node21" class="node">
<title>ct_tally</title>
<ellipse fill="none" stroke="black" cx="756.4" cy="-306" rx="37.09" ry="18"/>
<text text-anchor="middle" x="756.4" y="-302.3" font-family="Times,serif" font-size="14.00">ct_tally</text>
</g>
<!-- deflate&#45;&gt;ct_tally -->
<g id="edge23" class="edge">
<title>deflate&#45;&gt;ct_tally</title>
<path fill="none" stroke="black" d="M430.02,-366.5C436.9,-364.08 444.35,-361.72 451.4,-360 564.3,-332.46 597.68,-352.31 710.4,-324 713.36,-323.26 716.39,-322.39 719.42,-321.44"/>
<polygon fill="black" stroke="black" points="720.61,-324.74 728.97,-318.23 718.38,-318.1 720.61,-324.74"/>
</g>
<!-- longest_match -->
<g id="node22" class="node">
<title>longest_match</title>
<ellipse fill="none" stroke="black" cx="517.4" cy="-306" rx="62.29" ry="18"/>
<text text-anchor="middle" x="517.4" y="-302.3" font-family="Times,serif" font-size="14.00">longest_match</text>
</g>
<!-- deflate&#45;&gt;longest_match -->
<g id="edge24" class="edge">
<title>deflate&#45;&gt;longest_match</title>
<path fill="none" stroke="black" d="M424.84,-363.83C441.32,-353.71 464.41,-339.54 483.4,-327.88"/>
<polygon fill="black" stroke="black" points="485.38,-330.77 492.07,-322.55 481.72,-324.8 485.38,-330.77"/>
</g>
<!-- fill_window -->
<g id="node23" class="node">
<title>fill_window</title>
<ellipse fill="none" stroke="black" cx="383.4" cy="-306" rx="53.89" ry="18"/>
<text text-anchor="middle" x="383.4" y="-302.3" font-family="Times,serif" font-size="14.00">fill_window</text>
</g>
<!-- deflate&#45;&gt;fill_window -->
<g id="edge25" class="edge">
<title>deflate&#45;&gt;fill_window</title>
<path fill="none" stroke="black" d="M398.56,-360.05C396.33,-352.26 393.63,-342.82 391.13,-334.08"/>
<polygon fill="black" stroke="black" points="394.45,-332.93 388.33,-324.28 387.71,-334.85 394.45,-332.93"/>
</g>
<!-- flush_block -->
<g id="node24" class="node">
<title>flush_block</title>
<ellipse fill="none" stroke="black" cx="649.4" cy="-306" rx="51.99" ry="18"/>
<text text-anchor="middle" x="649.4" y="-302.3" font-family="Times,serif" font-size="14.00">flush_block</text>
</g>
<!-- deflate&#45;&gt;flush_block -->
<g id="edge27" class="edge">
<title>deflate&#45;&gt;flush_block</title>
<path fill="none" stroke="black" d="M430.68,-366.89C437.42,-364.52 444.64,-362.08 451.4,-360 511.57,-341.48 527.63,-340.45 588.4,-324 592.4,-322.92 596.54,-321.78 600.7,-320.64"/>
<polygon fill="black" stroke="black" points="601.66,-324.01 610.37,-317.97 599.8,-317.26 601.66,-324.01"/>
</g>
<!-- fill_window&#45;&gt;file_read -->
<g id="edge26" class="edge">
<title>fill_window&#45;&gt;file_read</title>
<path fill="none" stroke="black" d="M360.76,-289.46C346.2,-279.47 327.12,-266.38 311.32,-255.53"/>
<polygon fill="black" stroke="black" points="313.15,-252.55 302.92,-249.77 309.19,-258.32 313.15,-252.55"/>
</g>
<!-- flush_block&#45;&gt;init_block -->
<g id="edge42" class="edge">
<title>flush_block&#45;&gt;init_block</title>
<path fill="none" stroke="black" d="M688.38,-293.88C695.68,-291.87 703.26,-289.83 710.4,-288 778.06,-270.62 795.77,-269.53 863.4,-252 868.06,-250.79 872.92,-249.49 877.77,-248.16"/>
<polygon fill="black" stroke="black" points="878.92,-251.47 887.62,-245.42 877.04,-244.73 878.92,-251.47"/>
</g>
<!-- build_tree -->
<g id="node25" class="node">
<title>build_tree</title>
<ellipse fill="none" stroke="black" cx="847.4" cy="-162" rx="46.29" ry="18"/>
<text text-anchor="middle" x="847.4" y="-158.3" font-family="Times,serif" font-size="14.00">build_tree</text>
</g>
<!-- flush_block&#45;&gt;build_tree -->
<g id="edge28" class="edge">
<title>flush_block&#45;&gt;build_tree</title>
<path fill="none" stroke="black" d="M688.44,-294.11C740.91,-279.4 827.94,-254.7 830.4,-252 845.48,-235.4 849.03,-209.68 849.22,-190.15"/>
<polygon fill="black" stroke="black" points="852.72,-189.96 849.03,-180.03 845.72,-190.1 852.72,-189.96"/>
</g>
<!-- build_bl_tree -->
<g id="node28" class="node">
<title>build_bl_tree</title>
<ellipse fill="none" stroke="black" cx="649.4" cy="-234" rx="57.69" ry="18"/>
<text text-anchor="middle" x="649.4" y="-230.3" font-family="Times,serif" font-size="14.00">build_bl_tree</text>
</g>
<!-- flush_block&#45;&gt;build_bl_tree -->
<g id="edge32" class="edge">
<title>flush_block&#45;&gt;build_bl_tree</title>
<path fill="none" stroke="black" d="M649.4,-287.7C649.4,-279.98 649.4,-270.71 649.4,-262.11"/>
<polygon fill="black" stroke="black" points="652.9,-262.1 649.4,-252.1 645.9,-262.1 652.9,-262.1"/>
</g>
<!-- send_bits -->
<g id="node30" class="node">
<title>send_bits</title>
<ellipse fill="none" stroke="black" cx="455.4" cy="-90" rx="44.39" ry="18"/>
<text text-anchor="middle" x="455.4" y="-86.3" font-family="Times,serif" font-size="14.00">send_bits</text>
</g>
<!-- flush_block&#45;&gt;send_bits -->
<g id="edge35" class="edge">
<title>flush_block&#45;&gt;send_bits</title>
<path fill="none" stroke="black" d="M624.17,-290.09C610.18,-280.7 593.43,-267.45 582.4,-252 552.83,-210.58 576.63,-183.37 544.4,-144 531.52,-128.27 512.65,-116.09 495.61,-107.4"/>
<polygon fill="black" stroke="black" points="496.9,-104.14 486.37,-102.93 493.85,-110.44 496.9,-104.14"/>
</g>
<!-- send_all_trees -->
<g id="node31" class="node">
<title>send_all_trees</title>
<ellipse fill="none" stroke="black" cx="474.4" cy="-234" rx="61.19" ry="18"/>
<text text-anchor="middle" x="474.4" y="-230.3" font-family="Times,serif" font-size="14.00">send_all_trees</text>
</g>
<!-- flush_block&#45;&gt;send_all_trees -->
<g id="edge36" class="edge">
<title>flush_block&#45;&gt;send_all_trees</title>
<path fill="none" stroke="black" d="M616.48,-291.83C588.87,-280.79 549.2,-264.92 518.79,-252.76"/>
<polygon fill="black" stroke="black" points="519.85,-249.41 509.26,-248.95 517.25,-255.91 519.85,-249.41"/>
</g>
<!-- compress_block -->
<g id="node33" class="node">
<title>compress_block</title>
<ellipse fill="none" stroke="black" cx="323.4" cy="-162" rx="68.49" ry="18"/>
<text text-anchor="middle" x="323.4" y="-158.3" font-family="Times,serif" font-size="14.00">compress_block</text>
</g>
<!-- flush_block&#45;&gt;compress_block -->
<g id="edge40" class="edge">
<title>flush_block&#45;&gt;compress_block</title>
<path fill="none" stroke="black" d="M610.79,-293.75C603.39,-291.73 595.67,-289.72 588.4,-288 507.31,-268.8 477.01,-292.88 404.4,-252 377.16,-236.66 354.09,-208.85 339.62,-188.39"/>
<polygon fill="black" stroke="black" points="342.5,-186.39 333.96,-180.12 336.72,-190.35 342.5,-186.39"/>
</g>
<!-- bi_windup -->
<g id="node34" class="node">
<title>bi_windup</title>
<ellipse fill="none" stroke="black" cx="773.4" cy="-234" rx="48.19" ry="18"/>
<text text-anchor="middle" x="773.4" y="-230.3" font-family="Times,serif" font-size="14.00">bi_windup</text>
</g>
<!-- flush_block&#45;&gt;bi_windup -->
<g id="edge43" class="edge">
<title>flush_block&#45;&gt;bi_windup</title>
<path fill="none" stroke="black" d="M675.39,-290.33C693.87,-279.9 718.87,-265.78 739,-254.42"/>
<polygon fill="black" stroke="black" points="740.87,-257.38 747.86,-249.42 737.43,-251.28 740.87,-257.38"/>
</g>
<!-- build_tree&#45;&gt;gen_codes -->
<g id="edge31" class="edge">
<title>build_tree&#45;&gt;gen_codes</title>
<path fill="none" stroke="black" d="M871.02,-146.5C887.72,-136.24 910.32,-122.36 928.75,-111.05"/>
<polygon fill="black" stroke="black" points="930.72,-113.94 937.41,-105.73 927.06,-107.98 930.72,-113.94"/>
</g>
<!-- pqdownheap -->
<g id="node26" class="node">
<title>pqdownheap</title>
<ellipse fill="none" stroke="black" cx="725.4" cy="-90" rx="55.79" ry="18"/>
<text text-anchor="middle" x="725.4" y="-86.3" font-family="Times,serif" font-size="14.00">pqdownheap</text>
</g>
<!-- build_tree&#45;&gt;pqdownheap -->
<g id="edge29" class="edge">
<title>build_tree&#45;&gt;pqdownheap</title>
<path fill="none" stroke="black" d="M822.41,-146.67C804.52,-136.4 780.18,-122.43 760.36,-111.06"/>
<polygon fill="black" stroke="black" points="762.03,-107.98 751.61,-106.04 758.54,-114.05 762.03,-107.98"/>
</g>
<!-- gen_bitlen -->
<g id="node27" class="node">
<title>gen_bitlen</title>
<ellipse fill="none" stroke="black" cx="847.4" cy="-90" rx="48.19" ry="18"/>
<text text-anchor="middle" x="847.4" y="-86.3" font-family="Times,serif" font-size="14.00">gen_bitlen</text>
</g>
<!-- build_tree&#45;&gt;gen_bitlen -->
<g id="edge30" class="edge">
<title>build_tree&#45;&gt;gen_bitlen</title>
<path fill="none" stroke="black" d="M847.4,-143.7C847.4,-135.98 847.4,-126.71 847.4,-118.11"/>
<polygon fill="black" stroke="black" points="850.9,-118.1 847.4,-108.1 843.9,-118.1 850.9,-118.1"/>
</g>
<!-- build_bl_tree&#45;&gt;build_tree -->
<g id="edge34" class="edge">
<title>build_bl_tree&#45;&gt;build_tree</title>
<path fill="none" stroke="black" d="M686.18,-220C719.81,-208.11 769.55,-190.52 804.88,-178.03"/>
<polygon fill="black" stroke="black" points="806.17,-181.29 814.43,-174.65 803.84,-174.69 806.17,-181.29"/>
</g>
<!-- scan_tree -->
<g id="node29" class="node">
<title>scan_tree</title>
<ellipse fill="none" stroke="black" cx="649.4" cy="-162" rx="44.39" ry="18"/>
<text text-anchor="middle" x="649.4" y="-158.3" font-family="Times,serif" font-size="14.00">scan_tree</text>
</g>
<!-- build_bl_tree&#45;&gt;scan_tree -->
<g id="edge33" class="edge">
<title>build_bl_tree&#45;&gt;scan_tree</title>
<path fill="none" stroke="black" d="M649.4,-215.7C649.4,-207.98 649.4,-198.71 649.4,-190.11"/>
<polygon fill="black" stroke="black" points="652.9,-190.1 649.4,-180.1 645.9,-190.1 652.9,-190.1"/>
</g>
<!-- send_all_trees&#45;&gt;send_bits -->
<g id="edge37" class="edge">
<title>send_all_trees&#45;&gt;send_bits</title>
<path fill="none" stroke="black" d="M459.16,-216.24C451.3,-206.44 442.52,-193.4 438.4,-180 432.07,-159.42 437.37,-135.4 443.67,-117.5"/>
<polygon fill="black" stroke="black" points="447,-118.59 447.31,-108 440.47,-116.09 447,-118.59"/>
</g>
<!-- send_tree -->
<g id="node32" class="node">
<title>send_tree</title>
<ellipse fill="none" stroke="black" cx="491.4" cy="-162" rx="44.39" ry="18"/>
<text text-anchor="middle" x="491.4" y="-158.3" font-family="Times,serif" font-size="14.00">send_tree</text>
</g>
<!-- send_all_trees&#45;&gt;send_tree -->
<g id="edge38" class="edge">
<title>send_all_trees&#45;&gt;send_tree</title>
<path fill="none" stroke="black" d="M478.6,-215.7C480.49,-207.9 482.77,-198.51 484.88,-189.83"/>
<polygon fill="black" stroke="black" points="488.28,-190.65 487.24,-180.1 481.48,-189 488.28,-190.65"/>
</g>
<!-- send_tree&#45;&gt;send_bits -->
<g id="edge39" class="edge">
<title>send_tree&#45;&gt;send_bits</title>
<path fill="none" stroke="black" d="M482.68,-144.05C478.48,-135.89 473.35,-125.91 468.68,-116.82"/>
<polygon fill="black" stroke="black" points="471.72,-115.08 464.03,-107.79 465.49,-118.28 471.72,-115.08"/>
</g>
<!-- compress_block&#45;&gt;send_bits -->
<g id="edge41" class="edge">
<title>compress_block&#45;&gt;send_bits</title>
<path fill="none" stroke="black" d="M352.36,-145.64C372.46,-134.98 399.33,-120.73 420.59,-109.46"/>
<polygon fill="black" stroke="black" points="422.43,-112.45 429.62,-104.67 419.15,-106.26 422.43,-112.45"/>
</g>
<!-- write_buf -->
<g id="node36" class="node">
<title>write_buf</title>
<ellipse fill="none" stroke="black" cx="1019.4" cy="-306" rx="44.69" ry="18"/>
<text text-anchor="middle" x="1019.4" y="-302.3" font-family="Times,serif" font-size="14.00">write_buf</text>
</g>
<!-- flush_outbuf&#45;&gt;write_buf -->
<g id="edge45" class="edge">
<title>flush_outbuf&#45;&gt;write_buf</title>
<path fill="none" stroke="black" d="M676.14,-365.54C684.14,-363.52 692.5,-361.56 700.4,-360 816.99,-336.92 849.4,-349.94 965.4,-324 969.07,-323.18 972.84,-322.22 976.62,-321.19"/>
<polygon fill="black" stroke="black" points="977.88,-324.47 986.51,-318.33 975.93,-317.75 977.88,-324.47"/>
</g>
<!-- __cxa_finalize_ranges -->
<g id="node38" class="node">
<title>__cxa_finalize_ranges</title>
<ellipse fill="none" stroke="black" cx="766.4" cy="-594" rx="89.88" ry="18"/>
<text text-anchor="middle" x="766.4" y="-590.3" font-family="Times,serif" font-size="14.00">__cxa_finalize_ranges</text>
</g>
<!-- final_bracket -->
<g id="node39" class="node">
<title>final_bracket</title>
<ellipse fill="none" stroke="black" cx="766.4" cy="-522" rx="57.39" ry="18"/>
<text text-anchor="middle" x="766.4" y="-518.3" font-family="Times,serif" font-size="14.00">final_bracket</text>
</g>
<!-- __cxa_finalize_ranges&#45;&gt;final_bracket -->
<g id="edge47" class="edge">
<title>__cxa_finalize_ranges&#45;&gt;final_bracket</title>
<path fill="none" stroke="black" d="M766.4,-575.7C766.4,-567.98 766.4,-558.71 766.4,-550.11"/>
<polygon fill="black" stroke="black" points="769.9,-550.1 766.4,-540.1 762.9,-550.1 769.9,-550.1"/>
</g>
</g>
</svg>
