<?xml version="1.0" encoding="UTF-8" standalone="no"?>
<!DOCTYPE svg PUBLIC "-//W3C//DTD SVG 1.1//EN"
 "http://www.w3.org/Graphics/SVG/1.1/DTD/svg11.dtd">
<!-- Generated by graphviz version 3.0.0 (20220226.1711)
 -->
<!-- Title: G Pages: 1 -->
<svg width="1146pt" height="782pt"
 viewBox="0.00 0.00 1146.24 782.00" xmlns="http://www.w3.org/2000/svg" xmlns:xlink="http://www.w3.org/1999/xlink">
<g id="graph0" class="graph" transform="scale(1 1) rotate(0) translate(4 778)">
<title>G</title>
<polygon fill="white" stroke="transparent" points="-4,4 -4,-778 1142.24,-778 1142.24,4 -4,4"/>
<!-- main -->
<g id="node1" class="node">
<title>main</title>
<ellipse fill="none" stroke="black" cx="632.15" cy="-756" rx="28.7" ry="18"/>
<text text-anchor="middle" x="632.15" y="-752.3" font-family="Times,serif" font-size="14.00">main</text>
</g>
<!-- basename -->
<g id="node2" class="node">
<title>basename</title>
<ellipse fill="none" stroke="black" cx="46.15" cy="-495" rx="46.29" ry="18"/>
<text text-anchor="middle" x="46.15" y="-491.3" font-family="Times,serif" font-size="14.00">basename</text>
</g>
<!-- main&#45;&gt;basename -->
<g id="edge1" class="edge">
<title>main&#45;&gt;basename</title>
<path fill="none" stroke="black" d="M604.36,-751.44C516.6,-738.9 241.34,-689.52 74.15,-546 66.8,-539.69 60.99,-530.95 56.61,-522.54"/>
<polygon fill="black" stroke="black" points="59.7,-520.88 52.27,-513.33 53.37,-523.87 59.7,-520.88"/>
<text text-anchor="middle" x="207.65" y="-621.8" font-family="Times,serif" font-size="14.00">1</text>
</g>
<!-- add_envopt -->
<g id="node3" class="node">
<title>add_envopt</title>
<ellipse fill="none" stroke="black" cx="632.15" cy="-669" rx="51.99" ry="18"/>
<text text-anchor="middle" x="632.15" y="-665.3" font-family="Times,serif" font-size="14.00">add_envopt</text>
</g>
<!-- main&#45;&gt;add_envopt -->
<g id="edge2" class="edge">
<title>main&#45;&gt;add_envopt</title>
<path fill="none" stroke="black" d="M632.15,-737.8C632.15,-726.16 632.15,-710.55 632.15,-697.24"/>
<polygon fill="black" stroke="black" points="635.65,-697.18 632.15,-687.18 628.65,-697.18 635.65,-697.18"/>
<text text-anchor="middle" x="635.65" y="-708.8" font-family="Times,serif" font-size="14.00">1</text>
</g>
<!-- getopt_long -->
<g id="node4" class="node">
<title>getopt_long</title>
<ellipse fill="none" stroke="black" cx="755.15" cy="-669" rx="52.79" ry="18"/>
<text text-anchor="middle" x="755.15" y="-665.3" font-family="Times,serif" font-size="14.00">getopt_long</text>
</g>
<!-- main&#45;&gt;getopt_long -->
<g id="edge3" class="edge">
<title>main&#45;&gt;getopt_long</title>
<path fill="none" stroke="black" d="M650.83,-742.09C670.37,-728.58 701.37,-707.16 724.51,-691.17"/>
<polygon fill="black" stroke="black" points="726.71,-693.9 732.95,-685.34 722.74,-688.14 726.71,-693.9"/>
<text text-anchor="middle" x="704.65" y="-708.8" font-family="Times,serif" font-size="14.00">1</text>
</g>
<!-- treat_file -->
<g id="node7" class="node">
<title>treat_file</title>
<ellipse fill="none" stroke="black" cx="520.15" cy="-669" rx="42.49" ry="18"/>
<text text-anchor="middle" x="520.15" y="-665.3" font-family="Times,serif" font-size="14.00">treat_file</text>
</g>
<!-- main&#45;&gt;treat_file -->
<g id="edge6" class="edge">
<title>main&#45;&gt;treat_file</title>
<path fill="none" stroke="black" d="M614.65,-741.72C596.91,-728.26 569.19,-707.22 548.35,-691.4"/>
<polygon fill="black" stroke="black" points="550.25,-688.45 540.17,-685.2 546.02,-694.03 550.25,-688.45"/>
<text text-anchor="middle" x="586.65" y="-708.8" font-family="Times,serif" font-size="14.00">1</text>
</g>
<!-- do_exit -->
<g id="node37" class="node">
<title>do_exit</title>
<ellipse fill="none" stroke="black" cx="863.15" cy="-669" rx="37.09" ry="18"/>
<text text-anchor="middle" x="863.15" y="-665.3" font-family="Times,serif" font-size="14.00">do_exit</text>
</g>
<!-- main&#45;&gt;do_exit -->
<g id="edge46" class="edge">
<title>main&#45;&gt;do_exit</title>
<path fill="none" stroke="black" d="M656.39,-746.1C691.75,-733.13 759.51,-708.24 817.15,-687 819.68,-686.07 822.29,-685.1 824.92,-684.13"/>
<polygon fill="black" stroke="black" points="826.27,-687.37 834.44,-680.62 823.85,-680.8 826.27,-687.37"/>
<text text-anchor="middle" x="770.65" y="-708.8" font-family="Times,serif" font-size="14.00">1</text>
</g>
<!-- _getopt_internal -->
<g id="node5" class="node">
<title>_getopt_internal</title>
<ellipse fill="none" stroke="black" cx="791.15" cy="-582" rx="68.49" ry="18"/>
<text text-anchor="middle" x="791.15" y="-578.3" font-family="Times,serif" font-size="14.00">_getopt_internal</text>
</g>
<!-- getopt_long&#45;&gt;_getopt_internal -->
<g id="edge4" class="edge">
<title>getopt_long&#45;&gt;_getopt_internal</title>
<path fill="none" stroke="black" d="M762.43,-650.8C767.46,-638.93 774.24,-622.93 779.94,-609.45"/>
<polygon fill="black" stroke="black" points="783.19,-610.75 783.87,-600.18 776.75,-608.02 783.19,-610.75"/>
<text text-anchor="middle" x="779.65" y="-621.8" font-family="Times,serif" font-size="14.00">1</text>
</g>
<!-- my_index -->
<g id="node6" class="node">
<title>my_index</title>
<ellipse fill="none" stroke="black" cx="799.15" cy="-495" rx="46.29" ry="18"/>
<text text-anchor="middle" x="799.15" y="-491.3" font-family="Times,serif" font-size="14.00">my_index</text>
</g>
<!-- _getopt_internal&#45;&gt;my_index -->
<g id="edge5" class="edge">
<title>_getopt_internal&#45;&gt;my_index</title>
<path fill="none" stroke="black" d="M792.76,-563.8C793.86,-552.16 795.33,-536.55 796.58,-523.24"/>
<polygon fill="black" stroke="black" points="800.08,-523.46 797.53,-513.18 793.11,-522.8 800.08,-523.46"/>
<text text-anchor="middle" x="799.65" y="-534.8" font-family="Times,serif" font-size="14.00">1</text>
</g>
<!-- get_istat -->
<g id="node8" class="node">
<title>get_istat</title>
<ellipse fill="none" stroke="black" cx="520.15" cy="-582" rx="40.09" ry="18"/>
<text text-anchor="middle" x="520.15" y="-578.3" font-family="Times,serif" font-size="14.00">get_istat</text>
</g>
<!-- treat_file&#45;&gt;get_istat -->
<g id="edge7" class="edge">
<title>treat_file&#45;&gt;get_istat</title>
<path fill="none" stroke="black" d="M520.15,-650.8C520.15,-639.16 520.15,-623.55 520.15,-610.24"/>
<polygon fill="black" stroke="black" points="523.65,-610.18 520.15,-600.18 516.65,-610.18 523.65,-610.18"/>
<text text-anchor="middle" x="523.65" y="-621.8" font-family="Times,serif" font-size="14.00">1</text>
</g>
<!-- clear_bufs -->
<g id="node10" class="node">
<title>clear_bufs</title>
<ellipse fill="none" stroke="black" cx="626.15" cy="-582" rx="47.39" ry="18"/>
<text text-anchor="middle" x="626.15" y="-578.3" font-family="Times,serif" font-size="14.00">clear_bufs</text>
</g>
<!-- treat_file&#45;&gt;clear_bufs -->
<g id="edge9" class="edge">
<title>treat_file&#45;&gt;clear_bufs</title>
<path fill="none" stroke="black" d="M539.1,-652.8C555.7,-639.49 580.02,-619.99 598.74,-604.97"/>
<polygon fill="black" stroke="black" points="601.03,-607.63 606.64,-598.64 596.65,-602.17 601.03,-607.63"/>
<text text-anchor="middle" x="583.65" y="-621.8" font-family="Times,serif" font-size="14.00">1</text>
</g>
<!-- zip -->
<g id="node11" class="node">
<title>zip</title>
<ellipse fill="none" stroke="black" cx="374.15" cy="-582" rx="27" ry="18"/>
<text text-anchor="middle" x="374.15" y="-578.3" font-family="Times,serif" font-size="14.00">zip</text>
</g>
<!-- treat_file&#45;&gt;zip -->
<g id="edge10" class="edge">
<title>treat_file&#45;&gt;zip</title>
<path fill="none" stroke="black" d="M496.04,-653.96C470.42,-639.05 429.95,-615.49 402.74,-599.65"/>
<polygon fill="black" stroke="black" points="404.47,-596.6 394.06,-594.6 400.95,-602.65 404.47,-596.6"/>
<text text-anchor="middle" x="459.65" y="-621.8" font-family="Times,serif" font-size="14.00">1</text>
</g>
<!-- do_stat -->
<g id="node9" class="node">
<title>do_stat</title>
<ellipse fill="none" stroke="black" cx="698.15" cy="-495" rx="36.29" ry="18"/>
<text text-anchor="middle" x="698.15" y="-491.3" font-family="Times,serif" font-size="14.00">do_stat</text>
</g>
<!-- get_istat&#45;&gt;do_stat -->
<g id="edge8" class="edge">
<title>get_istat&#45;&gt;do_stat</title>
<path fill="none" stroke="black" d="M546.79,-568.27C577.91,-553.42 629.46,-528.8 663.62,-512.49"/>
<polygon fill="black" stroke="black" points="665.24,-515.59 672.76,-508.12 662.23,-509.27 665.24,-515.59"/>
<text text-anchor="middle" x="623.65" y="-534.8" font-family="Times,serif" font-size="14.00">1</text>
</g>
<!-- zip&#45;&gt;basename -->
<g id="edge21" class="edge">
<title>zip&#45;&gt;basename</title>
<path fill="none" stroke="black" d="M347.13,-579.68C286.75,-576.41 142.77,-566.61 99.15,-546 86.33,-539.94 74.58,-529.61 65.42,-519.91"/>
<polygon fill="black" stroke="black" points="67.93,-517.47 58.65,-512.35 62.72,-522.13 67.93,-517.47"/>
<text text-anchor="middle" x="102.65" y="-534.8" font-family="Times,serif" font-size="14.00">1</text>
</g>
<!-- updcrc -->
<g id="node12" class="node">
<title>updcrc</title>
<ellipse fill="none" stroke="black" cx="155.15" cy="-192" rx="34.39" ry="18"/>
<text text-anchor="middle" x="155.15" y="-188.3" font-family="Times,serif" font-size="14.00">updcrc</text>
</g>
<!-- zip&#45;&gt;updcrc -->
<g id="edge11" class="edge">
<title>zip&#45;&gt;updcrc</title>
<path fill="none" stroke="black" d="M347.44,-577.84C282.23,-569.37 120.15,-543.55 120.15,-496 120.15,-496 120.15,-496 120.15,-299 120.15,-270.56 131.65,-239.89 141.47,-218.9"/>
<polygon fill="black" stroke="black" points="144.71,-220.22 145.95,-209.7 138.42,-217.15 144.71,-220.22"/>
<text text-anchor="middle" x="123.65" y="-383.3" font-family="Times,serif" font-size="14.00">1</text>
</g>
<!-- bi_init -->
<g id="node13" class="node">
<title>bi_init</title>
<ellipse fill="none" stroke="black" cx="480.15" cy="-495" rx="33.6" ry="18"/>
<text text-anchor="middle" x="480.15" y="-491.3" font-family="Times,serif" font-size="14.00">bi_init</text>
</g>
<!-- zip&#45;&gt;bi_init -->
<g id="edge12" class="edge">
<title>zip&#45;&gt;bi_init</title>
<path fill="none" stroke="black" d="M395.53,-570.87C407.74,-564.57 422.99,-555.82 435.15,-546 444.61,-538.36 453.81,-528.66 461.41,-519.85"/>
<polygon fill="black" stroke="black" points="464.17,-522 467.9,-512.08 458.8,-517.51 464.17,-522"/>
<text text-anchor="middle" x="453.65" y="-534.8" font-family="Times,serif" font-size="14.00">1</text>
</g>
<!-- ct_init -->
<g id="node14" class="node">
<title>ct_init</title>
<ellipse fill="none" stroke="black" cx="582.15" cy="-387" rx="33.29" ry="18"/>
<text text-anchor="middle" x="582.15" y="-383.3" font-family="Times,serif" font-size="14.00">ct_init</text>
</g>
<!-- zip&#45;&gt;ct_init -->
<g id="edge13" class="edge">
<title>zip&#45;&gt;ct_init</title>
<path fill="none" stroke="black" d="M378.4,-564.06C387.55,-531.27 412.35,-459.19 461.15,-423 489.72,-401.8 505.17,-415.57 539.15,-405 541.88,-404.15 544.68,-403.21 547.48,-402.22"/>
<polygon fill="black" stroke="black" points="548.76,-405.48 556.91,-398.71 546.31,-398.92 548.76,-405.48"/>
<text text-anchor="middle" x="417.65" y="-491.3" font-family="Times,serif" font-size="14.00">1</text>
</g>
<!-- lm_init -->
<g id="node18" class="node">
<title>lm_init</title>
<ellipse fill="none" stroke="black" cx="177.15" cy="-441" rx="36.29" ry="18"/>
<text text-anchor="middle" x="177.15" y="-437.3" font-family="Times,serif" font-size="14.00">lm_init</text>
</g>
<!-- zip&#45;&gt;lm_init -->
<g id="edge18" class="edge">
<title>zip&#45;&gt;lm_init</title>
<path fill="none" stroke="black" d="M356.32,-568.42C322.01,-544.21 246.56,-490.98 205.36,-461.91"/>
<polygon fill="black" stroke="black" points="207.31,-459 197.12,-456.09 203.27,-464.72 207.31,-459"/>
<text text-anchor="middle" x="328.65" y="-534.8" font-family="Times,serif" font-size="14.00">1</text>
</g>
<!-- deflate -->
<g id="node20" class="node">
<title>deflate</title>
<ellipse fill="none" stroke="black" cx="351.15" cy="-495" rx="34.39" ry="18"/>
<text text-anchor="middle" x="351.15" y="-491.3" font-family="Times,serif" font-size="14.00">deflate</text>
</g>
<!-- zip&#45;&gt;deflate -->
<g id="edge22" class="edge">
<title>zip&#45;&gt;deflate</title>
<path fill="none" stroke="black" d="M369.6,-564.21C366.41,-552.41 362.07,-536.38 358.4,-522.82"/>
<polygon fill="black" stroke="black" points="361.75,-521.79 355.76,-513.05 354.99,-523.62 361.75,-521.79"/>
<text text-anchor="middle" x="367.65" y="-534.8" font-family="Times,serif" font-size="14.00">1</text>
</g>
<!-- flush_outbuf -->
<g id="node35" class="node">
<title>flush_outbuf</title>
<ellipse fill="none" stroke="black" cx="588.15" cy="-495" rx="55.79" ry="18"/>
<text text-anchor="middle" x="588.15" y="-491.3" font-family="Times,serif" font-size="14.00">flush_outbuf</text>
</g>
<!-- zip&#45;&gt;flush_outbuf -->
<g id="edge44" class="edge">
<title>zip&#45;&gt;flush_outbuf</title>
<path fill="none" stroke="black" d="M397.05,-571.9C432.21,-557.94 500.09,-530.98 544.76,-513.23"/>
<polygon fill="black" stroke="black" points="546.19,-516.43 554.19,-509.49 543.61,-509.92 546.19,-516.43"/>
<text text-anchor="middle" x="497.65" y="-534.8" font-family="Times,serif" font-size="14.00">1</text>
</g>
<!-- gen_codes -->
<g id="node15" class="node">
<title>gen_codes</title>
<ellipse fill="none" stroke="black" cx="586.15" cy="-105" rx="48.19" ry="18"/>
<text text-anchor="middle" x="586.15" y="-101.3" font-family="Times,serif" font-size="14.00">gen_codes</text>
</g>
<!-- ct_init&#45;&gt;gen_codes -->
<g id="edge14" class="edge">
<title>ct_init&#45;&gt;gen_codes</title>
<path fill="none" stroke="black" d="M582.39,-368.91C583.06,-321.95 584.94,-190.65 585.76,-133.34"/>
<polygon fill="black" stroke="black" points="589.26,-133.27 585.9,-123.23 582.26,-133.17 589.26,-133.27"/>
<text text-anchor="middle" x="588.65" y="-242.3" font-family="Times,serif" font-size="14.00">1</text>
</g>
<!-- bi_reverse -->
<g id="node16" class="node">
<title>bi_reverse</title>
<ellipse fill="none" stroke="black" cx="526.15" cy="-18" rx="47.39" ry="18"/>
<text text-anchor="middle" x="526.15" y="-14.3" font-family="Times,serif" font-size="14.00">bi_reverse</text>
</g>
<!-- ct_init&#45;&gt;bi_reverse -->
<g id="edge16" class="edge">
<title>ct_init&#45;&gt;bi_reverse</title>
<path fill="none" stroke="black" d="M560.54,-372.98C539.34,-358.36 510.15,-332.52 510.15,-301 510.15,-301 510.15,-301 510.15,-104 510.15,-84.41 514.3,-62.72 518.37,-46.15"/>
<polygon fill="black" stroke="black" points="521.86,-46.64 521,-36.08 515.09,-44.88 521.86,-46.64"/>
<text text-anchor="middle" x="513.65" y="-188.3" font-family="Times,serif" font-size="14.00">1</text>
</g>
<!-- init_block -->
<g id="node17" class="node">
<title>init_block</title>
<ellipse fill="none" stroke="black" cx="436.15" cy="-300" rx="46.29" ry="18"/>
<text text-anchor="middle" x="436.15" y="-296.3" font-family="Times,serif" font-size="14.00">init_block</text>
</g>
<!-- ct_init&#45;&gt;init_block -->
<g id="edge17" class="edge">
<title>ct_init&#45;&gt;init_block</title>
<path fill="none" stroke="black" d="M556.93,-375.22C551.15,-372.97 544.99,-370.76 539.15,-369 502.17,-357.86 483.25,-376.37 454.15,-351 447.42,-345.14 443.21,-336.57 440.57,-328.18"/>
<polygon fill="black" stroke="black" points="443.9,-327.07 438.07,-318.22 437.11,-328.78 443.9,-327.07"/>
<text text-anchor="middle" x="457.65" y="-339.8" font-family="Times,serif" font-size="14.00">1</text>
</g>
<!-- gen_codes&#45;&gt;bi_reverse -->
<g id="edge15" class="edge">
<title>gen_codes&#45;&gt;bi_reverse</title>
<path fill="none" stroke="black" d="M574.29,-87.21C565.52,-74.79 553.44,-57.67 543.58,-43.7"/>
<polygon fill="black" stroke="black" points="546.4,-41.62 537.77,-35.47 540.68,-45.66 546.4,-41.62"/>
<text text-anchor="middle" x="563.65" y="-57.8" font-family="Times,serif" font-size="14.00">1</text>
</g>
<!-- file_read -->
<g id="node19" class="node">
<title>file_read</title>
<ellipse fill="none" stroke="black" cx="190.15" cy="-300" rx="42.49" ry="18"/>
<text text-anchor="middle" x="190.15" y="-296.3" font-family="Times,serif" font-size="14.00">file_read</text>
</g>
<!-- lm_init&#45;&gt;file_read -->
<g id="edge19" class="edge">
<title>lm_init&#45;&gt;file_read</title>
<path fill="none" stroke="black" d="M174.22,-422.96C173.37,-417.27 172.56,-410.88 172.15,-405 171.01,-389.04 170.08,-384.87 172.15,-369 173.94,-355.19 177.71,-340.18 181.34,-327.79"/>
<polygon fill="black" stroke="black" points="184.73,-328.67 184.31,-318.08 178.04,-326.62 184.73,-328.67"/>
<text text-anchor="middle" x="175.65" y="-383.3" font-family="Times,serif" font-size="14.00">1</text>
</g>
<!-- file_read&#45;&gt;updcrc -->
<g id="edge20" class="edge">
<title>file_read&#45;&gt;updcrc</title>
<path fill="none" stroke="black" d="M184.52,-281.97C178.96,-265.12 170.37,-239.1 163.91,-219.54"/>
<polygon fill="black" stroke="black" points="167.21,-218.39 160.76,-209.99 160.57,-220.58 167.21,-218.39"/>
<text text-anchor="middle" x="181.65" y="-242.3" font-family="Times,serif" font-size="14.00">1</text>
</g>
<!-- ct_tally -->
<g id="node21" class="node">
<title>ct_tally</title>
<ellipse fill="none" stroke="black" cx="351.15" cy="-387" rx="37.09" ry="18"/>
<text text-anchor="middle" x="351.15" y="-383.3" font-family="Times,serif" font-size="14.00">ct_tally</text>
</g>
<!-- deflate&#45;&gt;ct_tally -->
<g id="edge23" class="edge">
<title>deflate&#45;&gt;ct_tally</title>
<path fill="none" stroke="black" d="M351.15,-476.97C351.15,-460.38 351.15,-434.88 351.15,-415.43"/>
<polygon fill="black" stroke="black" points="354.65,-415.34 351.15,-405.34 347.65,-415.34 354.65,-415.34"/>
<text text-anchor="middle" x="354.65" y="-437.3" font-family="Times,serif" font-size="14.00">1</text>
</g>
<!-- longest_match -->
<g id="node22" class="node">
<title>longest_match</title>
<ellipse fill="none" stroke="black" cx="468.15" cy="-387" rx="62.29" ry="18"/>
<text text-anchor="middle" x="468.15" y="-383.3" font-family="Times,serif" font-size="14.00">longest_match</text>
</g>
<!-- deflate&#45;&gt;longest_match -->
<g id="edge24" class="edge">
<title>deflate&#45;&gt;longest_match</title>
<path fill="none" stroke="black" d="M360.08,-477.39C369.08,-461.82 384.2,-438.67 402.15,-423 409.11,-416.92 417.3,-411.52 425.51,-406.88"/>
<polygon fill="black" stroke="black" points="427.19,-409.95 434.36,-402.16 423.89,-403.78 427.19,-409.95"/>
<text text-anchor="middle" x="405.65" y="-437.3" font-family="Times,serif" font-size="14.00">1</text>
</g>
<!-- fill_window -->
<g id="node23" class="node">
<title>fill_window</title>
<ellipse fill="none" stroke="black" cx="242.15" cy="-387" rx="53.89" ry="18"/>
<text text-anchor="middle" x="242.15" y="-383.3" font-family="Times,serif" font-size="14.00">fill_window</text>
</g>
<!-- deflate&#45;&gt;fill_window -->
<g id="edge25" class="edge">
<title>deflate&#45;&gt;fill_window</title>
<path fill="none" stroke="black" d="M335.53,-478.81C317.39,-461.17 287.26,-431.87 266.14,-411.33"/>
<polygon fill="black" stroke="black" points="268.42,-408.66 258.81,-404.2 263.54,-413.68 268.42,-408.66"/>
<text text-anchor="middle" x="316.65" y="-437.3" font-family="Times,serif" font-size="14.00">1</text>
</g>
<!-- flush_block -->
<g id="node24" class="node">
<title>flush_block</title>
<ellipse fill="none" stroke="black" cx="747.15" cy="-387" rx="51.99" ry="18"/>
<text text-anchor="middle" x="747.15" y="-383.3" font-family="Times,serif" font-size="14.00">flush_block</text>
</g>
<!-- deflate&#45;&gt;flush_block -->
<g id="edge27" class="edge">
<title>deflate&#45;&gt;flush_block</title>
<path fill="none" stroke="black" d="M378.42,-483.86C385.15,-481.49 392.38,-479.06 399.15,-477 502.85,-445.44 626.17,-415.71 694.65,-399.87"/>
<polygon fill="black" stroke="black" points="695.8,-403.2 704.76,-397.54 694.23,-396.38 695.8,-403.2"/>
<text text-anchor="middle" x="600.65" y="-437.3" font-family="Times,serif" font-size="14.00">1</text>
</g>
<!-- fill_window&#45;&gt;file_read -->
<g id="edge26" class="edge">
<title>fill_window&#45;&gt;file_read</title>
<path fill="none" stroke="black" d="M231.87,-369.21C224.39,-356.98 214.14,-340.21 205.66,-326.36"/>
<polygon fill="black" stroke="black" points="208.6,-324.46 200.4,-317.76 202.63,-328.12 208.6,-324.46"/>
<text text-anchor="middle" x="223.65" y="-339.8" font-family="Times,serif" font-size="14.00">1</text>
</g>
<!-- flush_block&#45;&gt;init_block -->
<g id="edge42" class="edge">
<title>flush_block&#45;&gt;init_block</title>
<path fill="none" stroke="black" d="M707.76,-375.23C650.32,-359.54 543.76,-330.41 482.58,-313.69"/>
<polygon fill="black" stroke="black" points="483.37,-310.28 472.8,-311.02 481.52,-317.03 483.37,-310.28"/>
<text text-anchor="middle" x="614.65" y="-339.8" font-family="Times,serif" font-size="14.00">1</text>
</g>
<!-- build_tree -->
<g id="node25" class="node">
<title>build_tree</title>
<ellipse fill="none" stroke="black" cx="656.15" cy="-192" rx="46.29" ry="18"/>
<text text-anchor="middle" x="656.15" y="-188.3" font-family="Times,serif" font-size="14.00">build_tree</text>
</g>
<!-- flush_block&#45;&gt;build_tree -->
<g id="edge28" class="edge">
<title>flush_block&#45;&gt;build_tree</title>
<path fill="none" stroke="black" d="M723.37,-370.88C706.43,-358.74 684.7,-340.11 673.15,-318 657.1,-287.29 654.4,-246.8 654.67,-220.34"/>
<polygon fill="black" stroke="black" points="658.17,-220.36 654.92,-210.27 651.17,-220.18 658.17,-220.36"/>
<text text-anchor="middle" x="676.65" y="-296.3" font-family="Times,serif" font-size="14.00">1</text>
</g>
<!-- build_bl_tree -->
<g id="node28" class="node">
<title>build_bl_tree</title>
<ellipse fill="none" stroke="black" cx="747.15" cy="-300" rx="57.69" ry="18"/>
<text text-anchor="middle" x="747.15" y="-296.3" font-family="Times,serif" font-size="14.00">build_bl_tree</text>
</g>
<!-- flush_block&#45;&gt;build_bl_tree -->
<g id="edge32" class="edge">
<title>flush_block&#45;&gt;build_bl_tree</title>
<path fill="none" stroke="black" d="M747.15,-368.8C747.15,-357.16 747.15,-341.55 747.15,-328.24"/>
<polygon fill="black" stroke="black" points="750.65,-328.18 747.15,-318.18 743.65,-328.18 750.65,-328.18"/>
<text text-anchor="middle" x="750.65" y="-339.8" font-family="Times,serif" font-size="14.00">1</text>
</g>
<!-- send_bits -->
<g id="node30" class="node">
<title>send_bits</title>
<ellipse fill="none" stroke="black" cx="947.15" cy="-105" rx="44.39" ry="18"/>
<text text-anchor="middle" x="947.15" y="-101.3" font-family="Times,serif" font-size="14.00">send_bits</text>
</g>
<!-- flush_block&#45;&gt;send_bits -->
<g id="edge35" class="edge">
<title>flush_block&#45;&gt;send_bits</title>
<path fill="none" stroke="black" d="M765.97,-370.12C780.47,-357.18 800.32,-337.86 814.15,-318 863.79,-246.7 841.22,-207.49 897.15,-141 901.88,-135.37 907.73,-130.22 913.73,-125.7"/>
<polygon fill="black" stroke="black" points="915.75,-128.56 921.93,-119.95 911.73,-122.83 915.75,-128.56"/>
<text text-anchor="middle" x="856.65" y="-242.3" font-family="Times,serif" font-size="14.00">1</text>
</g>
<!-- send_all_trees -->
<g id="node31" class="node">
<title>send_all_trees</title>
<ellipse fill="none" stroke="black" cx="925.15" cy="-300" rx="61.19" ry="18"/>
<text text-anchor="middle" x="925.15" y="-296.3" font-family="Times,serif" font-size="14.00">send_all_trees</text>
</g>
<!-- flush_block&#45;&gt;send_all_trees -->
<g id="edge36" class="edge">
<title>flush_block&#45;&gt;send_all_trees</title>
<path fill="none" stroke="black" d="M786.75,-375.19C806.31,-369.19 829.99,-360.93 850.15,-351 866.04,-343.17 882.54,-332.49 896.01,-323.01"/>
<polygon fill="black" stroke="black" points="898.3,-325.67 904.38,-316.99 894.22,-319.98 898.3,-325.67"/>
<text text-anchor="middle" x="879.65" y="-339.8" font-family="Times,serif" font-size="14.00">1</text>
</g>
<!-- compress_block -->
<g id="node33" class="node">
<title>compress_block</title>
<ellipse fill="none" stroke="black" cx="1022.15" cy="-246" rx="68.49" ry="18"/>
<text text-anchor="middle" x="1022.15" y="-242.3" font-family="Times,serif" font-size="14.00">compress_block</text>
</g>
<!-- flush_block&#45;&gt;compress_block -->
<g id="edge40" class="edge">
<title>flush_block&#45;&gt;compress_block</title>
<path fill="none" stroke="black" d="M785.8,-374.93C793.2,-372.89 800.9,-370.83 808.15,-369 891.66,-347.86 932.23,-376.85 995.15,-318 1007.31,-306.62 1014.05,-289.18 1017.75,-274.43"/>
<polygon fill="black" stroke="black" points="1021.25,-274.81 1019.94,-264.3 1014.4,-273.33 1021.25,-274.81"/>
<text text-anchor="middle" x="974.65" y="-339.8" font-family="Times,serif" font-size="14.00">1</text>
</g>
<!-- bi_windup -->
<g id="node34" class="node">
<title>bi_windup</title>
<ellipse fill="none" stroke="black" cx="1090.15" cy="-300" rx="48.19" ry="18"/>
<text text-anchor="middle" x="1090.15" y="-296.3" font-family="Times,serif" font-size="14.00">bi_windup</text>
</g>
<!-- flush_block&#45;&gt;bi_windup -->
<g id="edge43" class="edge">
<title>flush_block&#45;&gt;bi_windup</title>
<path fill="none" stroke="black" d="M784.63,-374.35C792.35,-372.3 800.46,-370.38 808.15,-369 903.4,-351.93 934.89,-385.93 1025.15,-351 1040.68,-344.99 1055.59,-334.03 1067.21,-323.9"/>
<polygon fill="black" stroke="black" points="1069.65,-326.41 1074.69,-317.09 1064.94,-321.23 1069.65,-326.41"/>
<text text-anchor="middle" x="1053.65" y="-339.8" font-family="Times,serif" font-size="14.00">1</text>
</g>
<!-- build_tree&#45;&gt;gen_codes -->
<g id="edge31" class="edge">
<title>build_tree&#45;&gt;gen_codes</title>
<path fill="none" stroke="black" d="M642.65,-174.61C632.29,-162.03 617.82,-144.46 606.12,-130.25"/>
<polygon fill="black" stroke="black" points="608.66,-127.83 599.6,-122.34 603.26,-132.28 608.66,-127.83"/>
<text text-anchor="middle" x="629.65" y="-144.8" font-family="Times,serif" font-size="14.00">1</text>
</g>
<!-- pqdownheap -->
<g id="node26" class="node">
<title>pqdownheap</title>
<ellipse fill="none" stroke="black" cx="708.15" cy="-105" rx="55.79" ry="18"/>
<text text-anchor="middle" x="708.15" y="-101.3" font-family="Times,serif" font-size="14.00">pqdownheap</text>
</g>
<!-- build_tree&#45;&gt;pqdownheap -->
<g id="edge29" class="edge">
<title>build_tree&#45;&gt;pqdownheap</title>
<path fill="none" stroke="black" d="M666.42,-174.21C673.9,-161.98 684.16,-145.21 692.63,-131.36"/>
<polygon fill="black" stroke="black" points="695.66,-133.12 697.89,-122.76 689.69,-129.46 695.66,-133.12"/>
<text text-anchor="middle" x="689.65" y="-144.8" font-family="Times,serif" font-size="14.00">1</text>
</g>
<!-- gen_bitlen -->
<g id="node27" class="node">
<title>gen_bitlen</title>
<ellipse fill="none" stroke="black" cx="830.15" cy="-105" rx="48.19" ry="18"/>
<text text-anchor="middle" x="830.15" y="-101.3" font-family="Times,serif" font-size="14.00">gen_bitlen</text>
</g>
<!-- build_tree&#45;&gt;gen_bitlen -->
<g id="edge30" class="edge">
<title>build_tree&#45;&gt;gen_bitlen</title>
<path fill="none" stroke="black" d="M683.72,-177.53C713.2,-163.13 760.11,-140.21 792.87,-124.21"/>
<polygon fill="black" stroke="black" points="794.68,-127.22 802.13,-119.69 791.61,-120.93 794.68,-127.22"/>
<text text-anchor="middle" x="757.65" y="-144.8" font-family="Times,serif" font-size="14.00">1</text>
</g>
<!-- build_bl_tree&#45;&gt;build_tree -->
<g id="edge34" class="edge">
<title>build_bl_tree&#45;&gt;build_tree</title>
<path fill="none" stroke="black" d="M732.93,-282.44C717.9,-264.94 694.05,-237.16 676.92,-217.2"/>
<polygon fill="black" stroke="black" points="679.43,-214.75 670.26,-209.45 674.12,-219.31 679.43,-214.75"/>
<text text-anchor="middle" x="718.65" y="-242.3" font-family="Times,serif" font-size="14.00">1</text>
</g>
<!-- scan_tree -->
<g id="node29" class="node">
<title>scan_tree</title>
<ellipse fill="none" stroke="black" cx="764.15" cy="-192" rx="44.39" ry="18"/>
<text text-anchor="middle" x="764.15" y="-188.3" font-family="Times,serif" font-size="14.00">scan_tree</text>
</g>
<!-- build_bl_tree&#45;&gt;scan_tree -->
<g id="edge33" class="edge">
<title>build_bl_tree&#45;&gt;scan_tree</title>
<path fill="none" stroke="black" d="M749.88,-281.97C752.55,-265.28 756.68,-239.58 759.8,-220.08"/>
<polygon fill="black" stroke="black" points="763.29,-220.42 761.42,-209.99 756.38,-219.31 763.29,-220.42"/>
<text text-anchor="middle" x="762.65" y="-242.3" font-family="Times,serif" font-size="14.00">1</text>
</g>
<!-- send_all_trees&#45;&gt;send_bits -->
<g id="edge37" class="edge">
<title>send_all_trees&#45;&gt;send_bits</title>
<path fill="none" stroke="black" d="M914.08,-282.16C899.59,-257.91 877.55,-211.89 891.15,-174 897.35,-156.71 910.05,-140.68 921.79,-128.53"/>
<polygon fill="black" stroke="black" points="924.26,-131.01 928.91,-121.49 919.34,-126.04 924.26,-131.01"/>
<text text-anchor="middle" x="894.65" y="-188.3" font-family="Times,serif" font-size="14.00">1</text>
</g>
<!-- send_tree -->
<g id="node32" class="node">
<title>send_tree</title>
<ellipse fill="none" stroke="black" cx="951.15" cy="-192" rx="44.39" ry="18"/>
<text text-anchor="middle" x="951.15" y="-188.3" font-family="Times,serif" font-size="14.00">send_tree</text>
</g>
<!-- send_all_trees&#45;&gt;send_tree -->
<g id="edge38" class="edge">
<title>send_all_trees&#45;&gt;send_tree</title>
<path fill="none" stroke="black" d="M927.42,-281.88C929.56,-267.38 933.16,-246.12 938.15,-228 938.92,-225.19 939.82,-222.28 940.79,-219.4"/>
<polygon fill="black" stroke="black" points="944.12,-220.49 944.19,-209.89 937.53,-218.13 944.12,-220.49"/>
<text text-anchor="middle" x="941.65" y="-242.3" font-family="Times,serif" font-size="14.00">1</text>
</g>
<!-- send_tree&#45;&gt;send_bits -->
<g id="edge39" class="edge">
<title>send_tree&#45;&gt;send_bits</title>
<path fill="none" stroke="black" d="M950.34,-173.8C949.79,-162.16 949.05,-146.55 948.43,-133.24"/>
<polygon fill="black" stroke="black" points="951.92,-133 947.95,-123.18 944.93,-133.33 951.92,-133"/>
<text text-anchor="middle" x="953.65" y="-144.8" font-family="Times,serif" font-size="14.00">1</text>
</g>
<!-- compress_block&#45;&gt;send_bits -->
<g id="edge41" class="edge">
<title>compress_block&#45;&gt;send_bits</title>
<path fill="none" stroke="black" d="M1020.01,-227.89C1017.65,-213.01 1012.95,-191.21 1004.15,-174 995.74,-157.58 982.73,-141.64 971.25,-129.32"/>
<polygon fill="black" stroke="black" points="973.46,-126.56 964,-121.79 968.41,-131.42 973.46,-126.56"/>
<text text-anchor="middle" x="1019.65" y="-188.3" font-family="Times,serif" font-size="14.00">1</text>
</g>
<!-- write_buf -->
<g id="node36" class="node">
<title>write_buf</title>
<ellipse fill="none" stroke="black" cx="862.15" cy="-387" rx="44.69" ry="18"/>
<text text-anchor="middle" x="862.15" y="-383.3" font-family="Times,serif" font-size="14.00">write_buf</text>
</g>
<!-- flush_outbuf&#45;&gt;write_buf -->
<g id="edge45" class="edge">
<title>flush_outbuf&#45;&gt;write_buf</title>
<path fill="none" stroke="black" d="M622.57,-480.68C673.18,-461.1 767.47,-424.62 821.44,-403.75"/>
<polygon fill="black" stroke="black" points="822.97,-406.91 831.03,-400.04 820.44,-400.38 822.97,-406.91"/>
<text text-anchor="middle" x="769.65" y="-437.3" font-family="Times,serif" font-size="14.00">1</text>
</g>
<!-- __cxa_finalize_ranges -->
<g id="node38" class="node">
<title>__cxa_finalize_ranges</title>
<ellipse fill="none" stroke="black" cx="975.15" cy="-756" rx="89.88" ry="18"/>
<text text-anchor="middle" x="975.15" y="-752.3" font-family="Times,serif" font-size="14.00">__cxa_finalize_ranges</text>
</g>
<!-- final_bracket -->
<g id="node39" class="node">
<title>final_bracket</title>
<ellipse fill="none" stroke="black" cx="975.15" cy="-669" rx="57.39" ry="18"/>
<text text-anchor="middle" x="975.15" y="-665.3" font-family="Times,serif" font-size="14.00">final_bracket</text>
</g>
<!-- __cxa_finalize_ranges&#45;&gt;final_bracket -->
<g id="edge47" class="edge">
<title>__cxa_finalize_ranges&#45;&gt;final_bracket</title>
<path fill="none" stroke="black" d="M975.15,-737.8C975.15,-726.16 975.15,-710.55 975.15,-697.24"/>
<polygon fill="black" stroke="black" points="978.65,-697.18 975.15,-687.18 971.65,-697.18 978.65,-697.18"/>
<text text-anchor="middle" x="978.65" y="-708.8" font-family="Times,serif" font-size="14.00">1</text>
</g>
</g>
</svg>
